<svg viewBox="0 0 992 124" xmlns="http://www.w3.org/2000/svg" xml:space="preserve" style="fill-rule:evenodd;clip-rule:evenodd;stroke-linejoin:round;stroke-miterlimit:2"><path style="fill:none" d="M0 0h991.667v123.628H0z"/><clipPath id="a"><path d="M0 0h991.667v123.628H0z"/></clipPath><g clip-path="url(#a)"><path d="M70.291 17.219V35.69H43.912v70.713H26.379V35.69H0V17.219h70.291zM126.914 72.01H92.868v34.393H75.282V17.219h17.586v36.32h34.046v-36.32h17.533v89.184h-17.533V72.01zM154.102 17.219h59.407V35.69h-41.821v15.921h38.551v18.471h-38.551v17.85h42.947v18.471h-60.533V17.219zM257.001 61.811c0 8.168 2.216 14.781 6.648 19.839 4.433 5.058 9.812 7.588 16.139 7.588 6.362 0 11.536-2.187 15.522-6.562 3.985-4.374 6.621-10.396 7.908-18.066l16.139 7.525c-2.288 11.111-6.872 19.808-13.753 26.089-6.881 6.282-15.522 9.422-25.923 9.422-8.007 0-15.084-1.99-21.233-5.97-6.148-3.98-10.857-9.443-14.127-16.388-3.271-6.944-4.906-14.77-4.906-23.477-.108-6.302.884-12.314 2.975-18.036 2.091-5.722 4.933-10.624 8.525-14.708 3.593-4.084 7.9-7.318 12.922-9.702 5.022-2.384 10.303-3.514 15.844-3.39 9.794 0 17.89 2.768 24.288 8.303 6.398 5.535 10.455 12.656 12.171 21.363l-16.139 8.396c-1.108-6.178-3.485-10.987-7.131-14.429-3.646-3.441-8.149-5.162-13.511-5.162-6.291 0-11.59 2.54-15.897 7.619-4.308 5.079-6.461 11.661-6.461 19.746zM390.51 106.403h-19.784c-1.001-2.571-1.662-5.121-1.984-7.65-.286-2.363-.429-6.613-.429-12.749 0-4.354-.965-7.671-2.895-9.951-1.931-2.281-4.701-3.421-8.311-3.421h-14.262v33.771h-17.586V17.219h38.443c7.935 0 14.217 2.436 18.846 7.308 4.629 4.871 6.943 11.142 6.943 18.813 0 4.892-1.394 9.619-4.182 14.18-2.645 4.312-6.183 7.442-10.616 9.391 3.324 1.036 6.059 3.192 8.204 6.468 2.144 3.275 3.324 7.276 3.538 12.003.215 4.602.626 8.385 1.233 11.35.608 2.964 1.555 5.504 2.842 7.618v2.053zm-47.665-52.242h20.321c3.038 0 5.352-.87 6.943-2.612 1.591-1.741 2.386-4.042 2.386-6.903 0-2.82-.786-5.017-2.359-6.593-1.573-1.575-3.896-2.363-6.97-2.363h-20.321v18.471zM433.584 15.975c5.398-.124 10.625 1.037 15.683 3.483s9.419 5.742 13.083 9.889c3.663 4.146 6.577 9.069 8.739 14.77a47.103 47.103 0 0 1 3.083 17.694 47.103 47.103 0 0 1-3.083 17.694c-2.162 5.7-5.076 10.634-8.739 14.801-3.664 4.167-8.025 7.474-13.083 9.92-5.058 2.446-10.285 3.586-15.683 3.42-5.397.166-10.625-.974-15.682-3.42-5.058-2.446-9.428-5.753-13.11-9.92-3.681-4.167-6.603-9.101-8.766-14.801a47.123 47.123 0 0 1-3.083-17.694 47.123 47.123 0 0 1 3.083-17.694c2.163-5.701 5.085-10.624 8.766-14.77 3.682-4.147 8.052-7.443 13.11-9.889 5.057-2.446 10.285-3.607 15.682-3.483zm-16.46 65.24c4.397 4.892 9.884 7.338 16.46 7.338 6.577 0 12.064-2.456 16.461-7.369 4.396-4.913 6.595-11.371 6.595-19.373s-2.199-14.46-6.595-19.373c-4.397-4.913-9.884-7.37-16.461-7.37-6.576 0-12.063 2.457-16.46 7.37-4.396 4.913-6.595 11.371-6.595 19.373s2.199 14.47 6.595 19.404zM509.787 33.14c-3.109 0-5.629.788-7.56 2.364-1.93 1.575-2.895 3.565-2.895 5.97 0 3.068 1.349 5.514 4.048 7.339 2.699 1.824 6.729 3.317 12.091 4.478 5.04 1.078 9.231 2.311 12.573 3.7 3.342 1.389 6.192 3.141 8.552 5.255 2.359 2.115 4.057 4.654 5.093 7.619 1.037 2.964 1.555 6.52 1.555 10.666 0 7.96-2.824 14.47-8.471 19.528-5.648 5.058-13.244 7.587-22.787 7.587-8.007 0-15.227-2.031-21.661-6.094-6.47-4.105-11.331-10.988-14.584-20.648l14.798-10.822c1.573 6.468 4.271 11.382 8.096 14.74 3.825 3.358 8.454 5.038 13.887 5.038 4.003 0 7.202-.778 9.597-2.333 2.395-1.554 3.592-3.679 3.592-6.374 0-2.115-.473-3.846-1.42-5.193-.948-1.348-2.663-2.54-5.148-3.576-2.484-1.037-5.978-1.928-10.482-2.675-8.471-1.409-15.066-4.478-19.784-9.204-4.718-4.727-7.077-11.174-7.077-19.342 0-7.131 2.618-13.112 7.854-17.942 5.237-4.831 12.127-7.246 20.67-7.246 7.363 0 13.6 1.897 18.712 5.691 5.111 3.794 8.757 9.318 10.937 16.574l-14.262 9.578c-1.358-5.1-3.315-8.821-5.871-11.164-2.555-2.342-5.906-3.514-10.053-3.514zM578.045 33.14c-3.109 0-5.629.788-7.56 2.364-1.93 1.575-2.895 3.565-2.895 5.97 0 3.068 1.35 5.514 4.048 7.339 2.699 1.824 6.729 3.317 12.091 4.478 5.04 1.078 9.231 2.311 12.573 3.7 3.342 1.389 6.192 3.141 8.552 5.255 2.359 2.115 4.057 4.654 5.093 7.619 1.037 2.964 1.555 6.52 1.555 10.666 0 7.96-2.824 14.47-8.471 19.528-5.648 5.058-13.244 7.587-22.787 7.587-8.007 0-15.227-2.031-21.661-6.094-6.47-4.105-11.331-10.988-14.584-20.648l14.798-10.822c1.573 6.468 4.272 11.382 8.096 14.74 3.825 3.358 8.454 5.038 13.887 5.038 4.003 0 7.202-.778 9.597-2.333 2.395-1.554 3.592-3.679 3.592-6.374 0-2.115-.473-3.846-1.42-5.193-.948-1.348-2.663-2.54-5.148-3.576-2.484-1.037-5.978-1.928-10.482-2.675-8.471-1.409-15.066-4.478-19.784-9.204-4.718-4.727-7.077-11.174-7.077-19.342 0-7.131 2.618-13.112 7.854-17.942 5.237-4.831 12.127-7.246 20.67-7.246 7.363 0 13.6 1.897 18.712 5.691 5.111 3.794 8.757 9.318 10.937 16.574l-14.262 9.578c-1.358-5.1-3.315-8.821-5.871-11.164-2.555-2.342-5.906-3.514-10.053-3.514zM682.548 106.403h-19.784c-1.001-2.571-1.662-5.121-1.984-7.65-.286-2.363-.429-6.613-.429-12.749 0-4.354-.965-7.671-2.895-9.951-1.931-2.281-4.701-3.421-8.311-3.421h-14.262v33.771h-17.586V17.219h38.443c7.935 0 14.217 2.436 18.846 7.308 4.629 4.871 6.943 11.142 6.943 18.813 0 4.892-1.394 9.619-4.182 14.18-2.645 4.312-6.183 7.442-10.616 9.391 3.325 1.036 6.059 3.192 8.204 6.468 2.144 3.275 3.324 7.276 3.538 12.003.215 4.602.626 8.385 1.233 11.35.608 2.964 1.555 5.504 2.842 7.618v2.053zm-47.665-52.242h20.321c3.038 0 5.352-.87 6.943-2.612 1.591-1.741 2.386-4.042 2.386-6.903 0-2.82-.786-5.017-2.359-6.593-1.573-1.575-3.896-2.363-6.97-2.363h-20.321v18.471zM725.622 15.975c5.398-.124 10.625 1.037 15.683 3.483s9.419 5.742 13.083 9.889c3.664 4.146 6.577 9.069 8.739 14.77a47.103 47.103 0 0 1 3.083 17.694 47.103 47.103 0 0 1-3.083 17.694c-2.162 5.7-5.075 10.634-8.739 14.801-3.664 4.167-8.025 7.474-13.083 9.92-5.058 2.446-10.285 3.586-15.683 3.42-5.397.166-10.625-.974-15.682-3.42-5.058-2.446-9.428-5.753-13.11-9.92-3.681-4.167-6.603-9.101-8.766-14.801a47.123 47.123 0 0 1-3.083-17.694 47.123 47.123 0 0 1 3.083-17.694c2.163-5.701 5.085-10.624 8.766-14.77 3.682-4.147 8.052-7.443 13.11-9.889 5.057-2.446 10.285-3.607 15.682-3.483zm-16.46 65.24c4.397 4.892 9.884 7.338 16.46 7.338 6.577 0 12.064-2.456 16.461-7.369 4.396-4.913 6.595-11.371 6.595-19.373s-2.199-14.46-6.595-19.373c-4.397-4.913-9.884-7.37-16.461-7.37-6.576 0-12.063 2.457-16.46 7.37-4.396 4.913-6.595 11.371-6.595 19.373s2.199 14.47 6.595 19.404zM761.848 106.403l30.24-89.184h25.253l30.186 89.184h-19.194l-5.952-18.471h-35.387l-5.897 18.471h-19.249zm31.098-36.943h23.484l-11.742-36.444-11.742 36.444zM851.231 106.403V17.219h30.186c12.904 0 22.993 4.063 30.267 12.19 7.274 8.126 10.911 19.134 10.911 33.024 0 6.426-.939 12.335-2.815 17.725-1.877 5.39-4.531 10.023-7.962 13.899-3.432 3.877-7.703 6.904-12.814 9.081-5.112 2.176-10.777 3.265-16.997 3.265h-30.776zm17.586-70.713v52.242h12.6c7.721 0 13.592-2.27 17.613-6.81 4.022-4.541 6.032-10.77 6.032-18.689 0-8.583-2.037-15.185-6.112-19.808-4.075-4.623-10.098-6.935-18.069-6.935h-12.064zM958.21 33.14c-3.11 0-5.63.788-7.56 2.364-1.93 1.575-2.895 3.565-2.895 5.97 0 3.068 1.349 5.514 4.048 7.339 2.699 1.824 6.729 3.317 12.09 4.478 5.04 1.078 9.231 2.311 12.573 3.7 3.342 1.389 6.193 3.141 8.552 5.255 2.359 2.115 4.057 4.654 5.094 7.619 1.036 2.964 1.555 6.52 1.555 10.666 0 7.96-2.824 14.47-8.472 19.528-5.647 5.058-13.243 7.587-22.787 7.587-8.006 0-15.227-2.031-21.661-6.094-6.469-4.105-11.331-10.988-14.583-20.648l14.798-10.822c1.572 6.468 4.271 11.382 8.096 14.74 3.824 3.358 8.453 5.038 13.886 5.038 4.004 0 7.203-.778 9.598-2.333 2.395-1.554 3.592-3.679 3.592-6.374 0-2.115-.474-3.846-1.421-5.193-.947-1.348-2.663-2.54-5.147-3.576-2.484-1.037-5.978-1.928-10.482-2.675-8.471-1.409-15.066-4.478-19.784-9.204-4.719-4.727-7.078-11.174-7.078-19.342 0-7.131 2.618-13.112 7.855-17.942 5.237-4.831 12.126-7.246 20.669-7.246 7.363 0 13.601 1.897 18.712 5.691 5.112 3.794 8.758 9.318 10.938 16.574l-14.262 9.578c-1.358-5.1-3.315-8.821-5.871-11.164-2.556-2.342-5.907-3.514-10.053-3.514z" style="fill-rule:nonzero"/></g></svg>