<?xml version="1.0" encoding="UTF-8" standalone="no"?><!DOCTYPE svg PUBLIC "-//W3C//DTD SVG 1.1//EN" "http://www.w3.org/Graphics/SVG/1.1/DTD/svg11.dtd"><svg width="100%" height="100%" viewBox="0 0 992 124" version="1.1" xmlns="http://www.w3.org/2000/svg" xmlns:xlink="http://www.w3.org/1999/xlink" xml:space="preserve" xmlns:serif="http://www.serif.com/" style="fill-rule:evenodd;clip-rule:evenodd;stroke-linejoin:round;stroke-miterlimit:2;"><rect id="Artboard1" x="0" y="0" width="991.667" height="123.628" style="fill:none;"/><clipPath id="_clip1"><rect x="0" y="0" width="991.667" height="123.628"/></clipPath><g clip-path="url(#_clip1)"><path d="M70.291,17.219l0,18.471l-26.379,0l-0,70.713l-17.533,-0l0,-70.713l-26.379,0l-0,-18.471l70.291,0Z" style="fill-rule:nonzero;"/><path d="M126.914,72.01l-34.046,0l-0,34.393l-17.586,-0l-0,-89.184l17.586,0l-0,36.32l34.046,0l0,-36.32l17.533,0l0,89.184l-17.533,-0l0,-34.393Z" style="fill-rule:nonzero;"/><path d="M154.102,17.219l59.407,0l0,18.471l-41.821,0l0,15.921l38.551,0l-0,18.471l-38.551,0l0,17.85l42.947,-0l0,18.471l-60.533,-0l0,-89.184Z" style="fill-rule:nonzero;"/><path d="M257.001,61.811c-0,8.168 2.216,14.781 6.648,19.839c4.433,5.058 9.812,7.588 16.139,7.588c6.362,-0 11.536,-2.187 15.522,-6.562c3.985,-4.374 6.621,-10.396 7.908,-18.066l16.139,7.525c-2.288,11.111 -6.872,19.808 -13.753,26.089c-6.881,6.282 -15.522,9.422 -25.923,9.422c-8.007,0 -15.084,-1.99 -21.233,-5.97c-6.148,-3.98 -10.857,-9.443 -14.127,-16.388c-3.271,-6.944 -4.906,-14.77 -4.906,-23.477c-0.108,-6.302 0.884,-12.314 2.975,-18.036c2.091,-5.722 4.933,-10.624 8.525,-14.708c3.593,-4.084 7.9,-7.318 12.922,-9.702c5.022,-2.384 10.303,-3.514 15.844,-3.39c9.794,0 17.89,2.768 24.288,8.303c6.398,5.535 10.455,12.656 12.171,21.363l-16.139,8.396c-1.108,-6.178 -3.485,-10.987 -7.131,-14.429c-3.646,-3.441 -8.149,-5.162 -13.511,-5.162c-6.291,0 -11.59,2.54 -15.897,7.619c-4.308,5.079 -6.461,11.661 -6.461,19.746Z" style="fill-rule:nonzero;"/><path d="M390.51,106.403l-19.784,-0c-1.001,-2.571 -1.662,-5.121 -1.984,-7.65c-0.286,-2.363 -0.429,-6.613 -0.429,-12.749c-0,-4.354 -0.965,-7.671 -2.895,-9.951c-1.931,-2.281 -4.701,-3.421 -8.311,-3.421l-14.262,0l0,33.771l-17.586,-0l-0,-89.184l38.443,0c7.935,0 14.217,2.436 18.846,7.308c4.629,4.871 6.943,11.142 6.943,18.813c0,4.892 -1.394,9.619 -4.182,14.18c-2.645,4.312 -6.183,7.442 -10.616,9.391c3.324,1.036 6.059,3.192 8.204,6.468c2.144,3.275 3.324,7.276 3.538,12.003c0.215,4.602 0.626,8.385 1.233,11.35c0.608,2.964 1.555,5.504 2.842,7.618l0,2.053Zm-47.665,-52.242l20.321,0c3.038,0 5.352,-0.87 6.943,-2.612c1.591,-1.741 2.386,-4.042 2.386,-6.903c0,-2.82 -0.786,-5.017 -2.359,-6.593c-1.573,-1.575 -3.896,-2.363 -6.97,-2.363l-20.321,0l0,18.471Z" style="fill-rule:nonzero;"/><path d="M433.584,15.975c5.398,-0.124 10.625,1.037 15.683,3.483c5.058,2.446 9.419,5.742 13.083,9.889c3.663,4.146 6.577,9.069 8.739,14.77c2.163,5.701 3.19,11.599 3.083,17.694c0.107,6.095 -0.92,11.993 -3.083,17.694c-2.162,5.7 -5.076,10.634 -8.739,14.801c-3.664,4.167 -8.025,7.474 -13.083,9.92c-5.058,2.446 -10.285,3.586 -15.683,3.42c-5.397,0.166 -10.625,-0.974 -15.682,-3.42c-5.058,-2.446 -9.428,-5.753 -13.11,-9.92c-3.681,-4.167 -6.603,-9.101 -8.766,-14.801c-2.162,-5.701 -3.19,-11.599 -3.083,-17.694c-0.107,-6.095 0.921,-11.993 3.083,-17.694c2.163,-5.701 5.085,-10.624 8.766,-14.77c3.682,-4.147 8.052,-7.443 13.11,-9.889c5.057,-2.446 10.285,-3.607 15.682,-3.483Zm-16.46,65.24c4.397,4.892 9.884,7.338 16.46,7.338c6.577,0 12.064,-2.456 16.461,-7.369c4.396,-4.913 6.595,-11.371 6.595,-19.373c-0,-8.002 -2.199,-14.46 -6.595,-19.373c-4.397,-4.913 -9.884,-7.37 -16.461,-7.37c-6.576,0 -12.063,2.457 -16.46,7.37c-4.396,4.913 -6.595,11.371 -6.595,19.373c0,8.002 2.199,14.47 6.595,19.404Z" style="fill-rule:nonzero;"/><path d="M509.787,33.14c-3.109,0 -5.629,0.788 -7.56,2.364c-1.93,1.575 -2.895,3.565 -2.895,5.97c0,3.068 1.349,5.514 4.048,7.339c2.699,1.824 6.729,3.317 12.091,4.478c5.04,1.078 9.231,2.311 12.573,3.7c3.342,1.389 6.192,3.141 8.552,5.255c2.359,2.115 4.057,4.654 5.093,7.619c1.037,2.964 1.555,6.52 1.555,10.666c0,7.96 -2.824,14.47 -8.471,19.528c-5.648,5.058 -13.244,7.587 -22.787,7.587c-8.007,0 -15.227,-2.031 -21.661,-6.094c-6.47,-4.105 -11.331,-10.988 -14.584,-20.648l14.798,-10.822c1.573,6.468 4.271,11.382 8.096,14.74c3.825,3.358 8.454,5.038 13.887,5.038c4.003,-0 7.202,-0.778 9.597,-2.333c2.395,-1.554 3.592,-3.679 3.592,-6.374c0,-2.115 -0.473,-3.846 -1.42,-5.193c-0.948,-1.348 -2.663,-2.54 -5.148,-3.576c-2.484,-1.037 -5.978,-1.928 -10.482,-2.675c-8.471,-1.409 -15.066,-4.478 -19.784,-9.204c-4.718,-4.727 -7.077,-11.174 -7.077,-19.342c-0,-7.131 2.618,-13.112 7.854,-17.942c5.237,-4.831 12.127,-7.246 20.67,-7.246c7.363,0 13.6,1.897 18.712,5.691c5.111,3.794 8.757,9.318 10.937,16.574l-14.262,9.578c-1.358,-5.1 -3.315,-8.821 -5.871,-11.164c-2.555,-2.342 -5.906,-3.514 -10.053,-3.514Z" style="fill-rule:nonzero;"/><path d="M578.045,33.14c-3.109,0 -5.629,0.788 -7.56,2.364c-1.93,1.575 -2.895,3.565 -2.895,5.97c0,3.068 1.35,5.514 4.048,7.339c2.699,1.824 6.729,3.317 12.091,4.478c5.04,1.078 9.231,2.311 12.573,3.7c3.342,1.389 6.192,3.141 8.552,5.255c2.359,2.115 4.057,4.654 5.093,7.619c1.037,2.964 1.555,6.52 1.555,10.666c0,7.96 -2.824,14.47 -8.471,19.528c-5.648,5.058 -13.244,7.587 -22.787,7.587c-8.007,0 -15.227,-2.031 -21.661,-6.094c-6.47,-4.105 -11.331,-10.988 -14.584,-20.648l14.798,-10.822c1.573,6.468 4.272,11.382 8.096,14.74c3.825,3.358 8.454,5.038 13.887,5.038c4.003,-0 7.202,-0.778 9.597,-2.333c2.395,-1.554 3.592,-3.679 3.592,-6.374c0,-2.115 -0.473,-3.846 -1.42,-5.193c-0.948,-1.348 -2.663,-2.54 -5.148,-3.576c-2.484,-1.037 -5.978,-1.928 -10.482,-2.675c-8.471,-1.409 -15.066,-4.478 -19.784,-9.204c-4.718,-4.727 -7.077,-11.174 -7.077,-19.342c-0,-7.131 2.618,-13.112 7.854,-17.942c5.237,-4.831 12.127,-7.246 20.67,-7.246c7.363,0 13.6,1.897 18.712,5.691c5.111,3.794 8.757,9.318 10.937,16.574l-14.262,9.578c-1.358,-5.1 -3.315,-8.821 -5.871,-11.164c-2.555,-2.342 -5.906,-3.514 -10.053,-3.514Z" style="fill-rule:nonzero;"/><path d="M682.548,106.403l-19.784,-0c-1.001,-2.571 -1.662,-5.121 -1.984,-7.65c-0.286,-2.363 -0.429,-6.613 -0.429,-12.749c-0,-4.354 -0.965,-7.671 -2.895,-9.951c-1.931,-2.281 -4.701,-3.421 -8.311,-3.421l-14.262,0l0,33.771l-17.586,-0l-0,-89.184l38.443,0c7.935,0 14.217,2.436 18.846,7.308c4.629,4.871 6.943,11.142 6.943,18.813c0,4.892 -1.394,9.619 -4.182,14.18c-2.645,4.312 -6.183,7.442 -10.616,9.391c3.325,1.036 6.059,3.192 8.204,6.468c2.144,3.275 3.324,7.276 3.538,12.003c0.215,4.602 0.626,8.385 1.233,11.35c0.608,2.964 1.555,5.504 2.842,7.618l0,2.053Zm-47.665,-52.242l20.321,0c3.038,0 5.352,-0.87 6.943,-2.612c1.591,-1.741 2.386,-4.042 2.386,-6.903c0,-2.82 -0.786,-5.017 -2.359,-6.593c-1.573,-1.575 -3.896,-2.363 -6.97,-2.363l-20.321,0l0,18.471Z" style="fill-rule:nonzero;"/><path d="M725.622,15.975c5.398,-0.124 10.625,1.037 15.683,3.483c5.058,2.446 9.419,5.742 13.083,9.889c3.664,4.146 6.577,9.069 8.739,14.77c2.163,5.701 3.19,11.599 3.083,17.694c0.107,6.095 -0.92,11.993 -3.083,17.694c-2.162,5.7 -5.075,10.634 -8.739,14.801c-3.664,4.167 -8.025,7.474 -13.083,9.92c-5.058,2.446 -10.285,3.586 -15.683,3.42c-5.397,0.166 -10.625,-0.974 -15.682,-3.42c-5.058,-2.446 -9.428,-5.753 -13.11,-9.92c-3.681,-4.167 -6.603,-9.101 -8.766,-14.801c-2.162,-5.701 -3.19,-11.599 -3.083,-17.694c-0.107,-6.095 0.921,-11.993 3.083,-17.694c2.163,-5.701 5.085,-10.624 8.766,-14.77c3.682,-4.147 8.052,-7.443 13.11,-9.889c5.057,-2.446 10.285,-3.607 15.682,-3.483Zm-16.46,65.24c4.397,4.892 9.884,7.338 16.46,7.338c6.577,0 12.064,-2.456 16.461,-7.369c4.396,-4.913 6.595,-11.371 6.595,-19.373c-0,-8.002 -2.199,-14.46 -6.595,-19.373c-4.397,-4.913 -9.884,-7.37 -16.461,-7.37c-6.576,0 -12.063,2.457 -16.46,7.37c-4.396,4.913 -6.595,11.371 -6.595,19.373c0,8.002 2.199,14.47 6.595,19.404Z" style="fill-rule:nonzero;"/><path d="M761.848,106.403l30.24,-89.184l25.253,0l30.186,89.184l-19.194,-0l-5.952,-18.471l-35.387,-0l-5.897,18.471l-19.249,-0Zm31.098,-36.943l23.484,0l-11.742,-36.444l-11.742,36.444Z" style="fill-rule:nonzero;"/><path d="M851.231,106.403l0,-89.184l30.186,0c12.904,0 22.993,4.063 30.267,12.19c7.274,8.126 10.911,19.134 10.911,33.024c-0,6.426 -0.939,12.335 -2.815,17.725c-1.877,5.39 -4.531,10.023 -7.962,13.899c-3.432,3.877 -7.703,6.904 -12.814,9.081c-5.112,2.176 -10.777,3.265 -16.997,3.265l-30.776,-0Zm17.586,-70.713l0,52.242l12.6,-0c7.721,-0 13.592,-2.27 17.613,-6.81c4.022,-4.541 6.032,-10.77 6.032,-18.689c0,-8.583 -2.037,-15.185 -6.112,-19.808c-4.075,-4.623 -10.098,-6.935 -18.069,-6.935l-12.064,0Z" style="fill-rule:nonzero;"/><path d="M958.21,33.14c-3.11,0 -5.63,0.788 -7.56,2.364c-1.93,1.575 -2.895,3.565 -2.895,5.97c-0,3.068 1.349,5.514 4.048,7.339c2.699,1.824 6.729,3.317 12.09,4.478c5.04,1.078 9.231,2.311 12.573,3.7c3.342,1.389 6.193,3.141 8.552,5.255c2.359,2.115 4.057,4.654 5.094,7.619c1.036,2.964 1.555,6.52 1.555,10.666c-0,7.96 -2.824,14.47 -8.472,19.528c-5.647,5.058 -13.243,7.587 -22.787,7.587c-8.006,0 -15.227,-2.031 -21.661,-6.094c-6.469,-4.105 -11.331,-10.988 -14.583,-20.648l14.798,-10.822c1.572,6.468 4.271,11.382 8.096,14.74c3.824,3.358 8.453,5.038 13.886,5.038c4.004,-0 7.203,-0.778 9.598,-2.333c2.395,-1.554 3.592,-3.679 3.592,-6.374c0,-2.115 -0.474,-3.846 -1.421,-5.193c-0.947,-1.348 -2.663,-2.54 -5.147,-3.576c-2.484,-1.037 -5.978,-1.928 -10.482,-2.675c-8.471,-1.409 -15.066,-4.478 -19.784,-9.204c-4.719,-4.727 -7.078,-11.174 -7.078,-19.342c0,-7.131 2.618,-13.112 7.855,-17.942c5.237,-4.831 12.126,-7.246 20.669,-7.246c7.363,0 13.601,1.897 18.712,5.691c5.112,3.794 8.758,9.318 10.938,16.574l-14.262,9.578c-1.358,-5.1 -3.315,-8.821 -5.871,-11.164c-2.556,-2.342 -5.907,-3.514 -10.053,-3.514Z" style="fill-rule:nonzero;"/></g></svg>