<?xml version="1.0" encoding="UTF-8" standalone="no"?><!DOCTYPE svg PUBLIC "-//W3C//DTD SVG 1.1//EN" "http://www.w3.org/Graphics/SVG/1.1/DTD/svg11.dtd"><svg width="100%" height="100%" viewBox="0 0 290 30" version="1.1" xmlns="http://www.w3.org/2000/svg" xmlns:xlink="http://www.w3.org/1999/xlink" xml:space="preserve" xmlns:serif="http://www.serif.com/" style="fill-rule:evenodd;clip-rule:evenodd;stroke-linejoin:round;stroke-miterlimit:2;"><path d="M26.643,13.44l-22.336,0l11.168,-3.131l11.168,3.131Zm4.307,18.699l-30.95,0l0,-12.167l6.045,-0l0.106,-4.448l-0.439,-0l0,-1.739l19.525,0l0,1.739l-0.438,-0l0.106,4.448l6.045,-0l-0,12.167Zm-6.695,-19.044l-8.78,-2.441l-8.78,2.441l17.56,0Zm0.363,12.117l-0.227,-9.688l-1.103,-0l-0.227,9.688l1.557,-0Zm0.211,-10.033l0,-1.048l-18.709,-0l0,1.048l18.709,-0Zm-5.788,10.033l-0.226,-9.688l-1.103,-0l-0.227,9.688l1.556,-0Zm-5.576,-0l-0.227,-9.688l-1.103,-0l-0.227,9.688l1.557,-0Zm15.218,2.646l0,-0.767l-0.997,-0l-0,-0.767l-0.998,-0l0,-0.767l-22.426,0l-0,0.767l-0.998,-0l0,0.767l-0.997,-0l-0,0.767l26.416,-0Zm-20.794,-2.646l-0.227,-9.688l-1.103,-0l-0.227,9.688l1.557,-0Z" style="fill-rule:nonzero;"/><path d="M59.507,18.246c-0,2.531 -0.907,4.87 -2.721,7.017c0.887,-1.602 1.33,-3.404 1.33,-5.406c0,-1.867 -0.357,-3.601 -1.073,-5.202c-0.876,-1.943 -2.141,-3.277 -3.793,-4.001c2.015,0.545 3.572,1.5 4.67,2.863c1.058,1.329 1.587,2.906 1.587,4.729Zm-2.766,0.422c-0,2.028 -0.725,3.898 -2.176,5.611c0.705,-1.278 1.058,-2.718 1.058,-4.32c-0,-1.491 -0.287,-2.876 -0.862,-4.154c-0.695,-1.559 -1.707,-2.629 -3.037,-3.208c1.612,0.434 2.856,1.201 3.732,2.3c0.857,1.057 1.285,2.314 1.285,3.771Zm-2.494,0.434c0,1.628 -0.584,3.128 -1.753,4.5c0.575,-1.032 0.862,-2.186 0.862,-3.464c-0,-1.193 -0.232,-2.301 -0.695,-3.323c-0.554,-1.244 -1.36,-2.101 -2.418,-2.569c1.279,0.349 2.267,0.956 2.962,1.821c0.695,0.865 1.042,1.877 1.042,3.035Zm-2.72,2.467c0,0.946 -0.106,1.777 -0.317,2.493c-0.322,1.124 -0.851,1.687 -1.587,1.687c-0.191,-0 -0.609,-0.183 -1.254,-0.55c-0.786,-0.451 -2.287,-0.826 -4.504,-1.125c-1.833,-0.255 -3.44,-0.383 -4.82,-0.383c-0.383,-0 -0.575,0.26 -0.575,0.78c0,0.179 0.081,0.432 0.242,0.76c0.161,0.328 0.242,0.586 0.242,0.773c-0,0.188 0.131,0.397 0.393,0.627c0.262,0.23 0.393,0.413 0.393,0.549c-0,0.034 -0.013,0.086 -0.038,0.154c-0.025,0.068 -0.038,0.119 -0.038,0.153c0,0.119 0.119,0.29 0.355,0.511c0.237,0.222 0.355,0.414 0.355,0.575c0,0.077 -0.037,0.175 -0.113,0.294c-0.075,0.12 -0.113,0.213 -0.113,0.282c-0,0.102 0.06,0.219 0.181,0.351c0.121,0.132 0.181,0.224 0.181,0.275c0,0.153 -0.241,0.23 -0.725,0.23c-1.058,0 -1.803,-0.264 -2.237,-0.792c-0.272,-0.324 -0.528,-1.002 -0.77,-2.033c-0.474,-1.925 -1.28,-2.888 -2.418,-2.888c-0.041,-0 -0.101,0.006 -0.182,0.019c-0.08,0.013 -0.141,0.019 -0.181,0.019c-1.29,0 -1.934,-0.997 -1.934,-2.991c-0,-1.142 0.66,-1.964 1.979,-2.467c0.685,-0.213 1.708,-0.549 3.068,-1.009c1.431,-0.512 2.997,-1.296 4.7,-2.352c1.592,-0.98 2.715,-1.819 3.37,-2.518c0.262,-1.176 0.811,-1.764 1.647,-1.764c0.988,0 1.94,0.92 2.857,2.761c0.614,1.244 1.083,2.552 1.405,3.924c0.292,1.235 0.438,2.454 0.438,3.655Zm-18.588,2.62c-1.088,-0.059 -1.859,-0.178 -2.312,-0.357c-0.715,-0.299 -1.073,-0.84 -1.073,-1.624c0,-0.775 0.287,-1.35 0.861,-1.725c0.021,-0.017 0.696,-0.32 2.026,-0.908c-0.474,0.452 -0.711,1.142 -0.711,2.071c0,1.125 0.403,1.973 1.209,2.543Zm14.72,-3.476c-0,-0.903 -0.182,-1.751 -0.545,-2.544c-0.403,-0.886 -0.957,-1.508 -1.662,-1.866c0.383,3.034 0.972,5.309 1.768,6.826c0.292,-0.75 0.439,-1.555 0.439,-2.416Zm-0.016,3.719c-0.886,-1.141 -1.591,-2.586 -2.115,-4.333c-0.484,-1.61 -0.726,-3.165 -0.726,-4.665l0.197,-1.457c-0.675,0.741 -1.602,1.436 -2.781,2.084c-1.068,0.536 -2.131,1.077 -3.189,1.623c-1.249,0.656 -1.873,1.418 -1.873,2.288c-0,0.758 0.161,1.414 0.483,1.968c0.403,0.682 0.998,1.078 1.783,1.189c0.051,0.008 0.605,0.029 1.663,0.064c2.508,0.085 4.695,0.498 6.558,1.239Zm-15.837,-0.779c-0.393,-0.929 -0.59,-1.658 -0.59,-2.186c0,-0.366 0.056,-0.677 0.167,-0.933l-0.348,0.077c-0.121,0.392 -0.181,0.809 -0.181,1.252c-0,0.367 0.176,0.963 0.529,1.79l0.423,-0Zm-0.831,-0.077c-0.363,-0.733 -0.544,-1.257 -0.544,-1.572c-0,-0.315 0.04,-0.707 0.12,-1.176l-0.423,0.243c-0.07,0.341 -0.105,0.66 -0.105,0.958c-0,0.392 0.191,0.87 0.574,1.432l0.378,0.115Z" style="fill-rule:nonzero;"/><path d="M88.517,32.139l-30.95,0l-0,-12.167c0.957,-0 1.717,-0.196 2.282,-0.588c0.262,-0.179 0.589,-0.533 0.982,-1.061c0.292,-0.384 0.584,-0.575 0.876,-0.575c0.293,-0 0.711,0.068 1.255,0.204c0.544,0.136 1.103,0.205 1.677,0.205c0.625,-0 1.501,-0.631 2.63,-1.892c0.987,-1.176 1.969,-2.348 2.947,-3.515c1.118,-1.269 1.959,-1.904 2.523,-1.904c0.262,-0 0.653,0.149 1.172,0.447c0.518,0.298 0.929,0.456 1.231,0.473c0.413,0.034 1.048,-0.017 1.904,-0.153c0.907,-0.137 1.411,-0.205 1.512,-0.205c0.705,0 1.748,0.737 3.128,2.211c1.219,1.372 2.438,2.748 3.657,4.129c1.4,1.482 2.458,2.224 3.174,2.224l-0,12.167Zm-11.788,-20.296c-0.897,0.145 -1.602,0.145 -2.116,-0c-0.221,-0.06 -0.508,-0.201 -0.861,-0.422c-0.312,-0.196 -0.524,-0.294 -0.635,-0.294c-0.352,-0 -0.529,0.128 -0.529,0.383c0,0.239 0.111,0.443 0.333,0.614c0.181,0.136 0.493,0.204 0.937,0.204c0.725,0 1.682,-0.162 2.871,-0.485Zm7.39,4.882c-0.433,-0.469 -1.123,-1.235 -2.07,-2.301c-0.766,-0.911 -1.607,-1.695 -2.524,-2.351c-0.01,0.136 -0.061,0.255 -0.151,0.358c-0.212,0.255 -0.585,0.409 -1.119,0.46c-0.151,0.008 -0.297,0.013 -0.438,0.013c-0.302,-0 -0.66,-0.049 -1.073,-0.147c-0.413,-0.098 -0.771,-0.147 -1.073,-0.147c-0.352,-0 -0.776,0.04 -1.269,0.121c-0.494,0.081 -0.867,0.121 -1.119,0.121c-0.201,0 -0.408,-0.012 -0.619,-0.038c-0.454,-0.068 -0.68,-0.311 -0.68,-0.729c-0,-0.23 0.07,-0.485 0.211,-0.766c-0.211,0.127 -0.433,0.294 -0.665,0.498c-0.554,0.486 -1.128,1.121 -1.722,1.905c-0.655,0.86 -1.617,2.002 -2.887,3.425c1.129,-0.997 2.141,-1.491 3.038,-1.483c0.564,0.009 1.007,0.269 1.33,0.78c0.211,0.477 0.418,0.954 0.619,1.431c0.242,0.512 0.544,0.772 0.907,0.78c0.645,0.017 1.033,-0.243 1.164,-0.78c0.11,-0.502 0.221,-1.005 0.332,-1.508c0.292,-0.545 0.957,-0.818 1.995,-0.818c0.403,0 1.025,0.222 1.866,0.665c0.841,0.443 1.443,0.66 1.806,0.652c0.212,-0.009 0.317,-0.115 0.317,-0.32c0,-0.102 -0.04,-0.298 -0.12,-0.588c-0.081,-0.289 -0.121,-0.494 -0.121,-0.613c-0,-0.298 0.171,-0.448 0.514,-0.448c0.372,0 0.884,0.48 1.533,1.438c0.65,0.959 1.187,1.438 1.61,1.438c0.342,0 0.514,-0.179 0.514,-0.537c-0,-0.153 -0.036,-0.323 -0.106,-0.511Zm-19.45,1.662c-0.604,-0 -1.133,-0.064 -1.586,-0.192c-0.554,-0.153 -1.008,-0.23 -1.36,-0.23c-0.051,0.417 0.206,0.656 0.77,0.716c0.494,0.051 1.219,-0.047 2.176,-0.294Z" style="fill-rule:nonzero;"/><path d="M110.091,12.788l-2.085,0l-0.831,-0.511l2.206,0l0,-1.879l0.71,0.716l0,1.674Zm1.149,2.071l-2.856,-1.815l1.994,0l0,-1.994l-1.042,-1.086l-2.569,-0.192l0.257,-0.498c0.151,-0.188 0.398,-0.282 0.74,-0.282c0.494,0 0.937,0.09 1.33,0.269c0.393,0.179 0.826,0.485 1.3,0.92l0.846,3.374l-0,1.304Zm-5.561,-5.151c-1.018,-0.068 -1.892,-0.119 -2.622,-0.153c-0.731,-0.034 -1.645,-0.043 -2.743,-0.026l1.088,-2.364c0.201,-0.256 0.594,-0.38 1.179,-0.371c0.997,0.026 1.904,0.337 2.72,0.933l0.378,1.981Zm6.966,8.461c-1.189,-0.323 -2.226,-0.651 -3.113,-0.984c-0.645,-0.247 -1.481,-0.605 -2.508,-1.073l-0,-3.643l4.866,3.131l-0,1.074l0.755,0.486l0,1.009Zm-3.566,-8.001l-0,1.854l-2.388,-0l0,3.923c-2.539,-1.329 -4.322,-2.266 -5.35,-2.811c-2.055,-1.091 -4.428,-1.781 -7.117,-2.071l-0,-1.086c2.871,-0.171 5.243,-0.252 7.117,-0.243c1.955,0.017 4.534,0.162 7.738,0.434Zm5.229,8.615c-0.01,0.477 -0.046,0.865 -0.106,1.163c-0.071,0.375 -0.161,0.695 -0.272,0.959c-1.602,0.639 -3.4,1.184 -5.395,1.636c-1.753,0.4 -3.496,0.6 -5.229,0.6c-2.599,0 -4.141,0.017 -4.624,0.052c-1.733,0.136 -3.219,0.728 -4.458,1.776l-0.62,-7.605c-0.171,-2.028 -0.68,-4.094 -1.526,-6.199c1.863,-0.068 3.954,0.277 6.271,1.036c1.33,0.434 3.002,1.192 5.017,2.275c2.408,1.303 4.04,2.138 4.897,2.505c1.884,0.801 3.899,1.401 6.045,1.802Zm-21.021,-0.69c-0.242,-0.614 -0.736,-1.415 -1.481,-2.403c-0.857,-1.142 -1.34,-2.054 -1.451,-2.735c-0.01,-0.086 -0.015,-0.171 -0.015,-0.256c-0,-0.724 0.413,-1.227 1.239,-1.508c0.604,1.312 1.038,2.688 1.3,4.128c0.151,0.827 0.287,1.751 0.408,2.774Zm24.013,14.046l-30.95,0l0,-12.167l7.118,-0l0.211,3.54c-0.634,-0.469 -1.219,-0.733 -1.753,-0.792c-0.433,-0.043 -0.876,0.025 -1.329,0.204c-0.403,0.179 -0.801,0.354 -1.194,0.524c-0.242,0.102 -0.449,0.145 -0.62,0.128c-0.473,-0.017 -1.017,-0.115 -1.632,-0.294l0,0.396c0.474,0.162 1.033,0.26 1.677,0.294c0.252,0.009 0.726,-0.153 1.421,-0.486c0.655,-0.306 1.209,-0.434 1.662,-0.383c0.796,0.085 1.426,0.481 1.889,1.189l0.121,1.482c1.471,-1.372 3.063,-2.121 4.776,-2.249c0.302,-0.017 1.244,0.149 2.826,0.498c1.662,0.367 3.002,0.541 4.02,0.524c0.906,-0.025 2.171,-0.174 3.793,-0.447l-0,-0.371c-1.582,0.299 -2.872,0.448 -3.869,0.448c-1.118,-0 -2.64,-0.23 -4.564,-0.691l2.887,0.013c1.682,-0.034 3.239,-0.23 4.669,-0.588c2.025,-0.519 3.919,-1.137 5.682,-1.853c0.041,-0.119 0.101,-0.302 0.182,-0.55c0.04,-0.136 0.085,-0.315 0.136,-0.536l2.841,-0l-0,12.167Zm-8.931,-20.475l-0,-0.997l-4.292,-0l-0,0.997l4.292,-0Zm2.992,4.652c-0,-0.332 -0.111,-0.498 -0.333,-0.498c-0.211,-0 -0.317,0.166 -0.317,0.498c-0,0.332 0.106,0.499 0.317,0.499c0.222,-0 0.333,-0.167 0.333,-0.499Zm-1.406,-0.754c0,-0.358 -0.116,-0.537 -0.347,-0.537c-0.232,0 -0.348,0.179 -0.348,0.537c0,0.366 0.116,0.55 0.348,0.55c0.231,-0 0.347,-0.184 0.347,-0.55Zm-1.556,-0.882c-0,-0.4 -0.126,-0.601 -0.378,-0.601c-0.252,0 -0.378,0.201 -0.378,0.601c0,0.401 0.126,0.601 0.378,0.601c0.252,-0 0.378,-0.2 0.378,-0.601Zm-4.761,-3.016l0,-0.997l-4.382,-0l-0,0.997l4.382,-0Zm-4.715,-0l0,-0.997l-4.125,-0l-0,0.307c0.342,0.051 0.831,0.132 1.466,0.242c0.372,0.077 0.962,0.226 1.768,0.448l0.891,-0Z" style="fill-rule:nonzero;"/><path d="M127.661,12.201c0,1.065 -0.46,1.974 -1.382,2.728c-0.922,0.754 -2.033,1.132 -3.333,1.132c-1.299,-0 -2.41,-0.378 -3.332,-1.132c-0.922,-0.754 -1.383,-1.663 -1.383,-2.728c0,-1.066 0.461,-1.973 1.383,-2.723c0.922,-0.75 2.033,-1.125 3.332,-1.125c1.3,0 2.411,0.375 3.333,1.125c0.922,0.75 1.382,1.657 1.382,2.723Zm18.422,19.938l-30.95,0l0,-12.167c0.333,-0.009 0.665,-0.034 0.998,-0.077c0.796,-0.102 1.541,-0.277 2.236,-0.524c0.756,-0.273 1.522,-0.746 2.297,-1.419l3.401,0.652c0.665,0.247 1.385,0.703 2.161,1.368c0.524,-0.009 1.022,-0.034 1.496,-0.077c1.128,-0.102 2.04,-0.277 2.735,-0.524c0.766,-0.273 1.532,-0.746 2.297,-1.419l3.401,0.652c0.675,0.247 1.395,0.703 2.161,1.368l-0,-3.26l-2.978,0c-0.332,0 -0.68,-0.149 -1.042,-0.447c-0.363,-0.298 -0.544,-0.618 -0.544,-0.959l-0,-4.077c-0,-0.699 0.317,-1.048 0.952,-1.048c0.655,0 0.982,0.349 0.982,1.048l0,3.259c0,0.546 0.408,0.818 1.224,0.818l1.406,0l-0,-6.429c-0,-0.707 0.322,-1.06 0.967,-1.06c0.634,-0 0.952,0.353 0.952,1.06l-0,8.014l0.65,0c0.624,0 0.937,-0.272 0.937,-0.818l-0,-1.942c-0,-0.708 0.322,-1.061 0.967,-1.061c0.634,-0 0.952,0.353 0.952,1.061l-0,2.76c-0,0.341 -0.181,0.661 -0.544,0.959c-0.363,0.298 -0.71,0.447 -1.043,0.447l-1.919,0l-0,1.675l5.848,-0l0,12.167Zm-12.467,-11.797c0.02,-0.093 0.03,-0.187 0.03,-0.281c-0,-0.52 -0.232,-1.018 -0.695,-1.495c0.121,0.332 0.181,0.669 0.181,1.009c0,0.307 -0.06,0.576 -0.181,0.806c-0.353,0.656 -1.149,1.116 -2.388,1.38c0.544,-0.043 1.023,-0.119 1.436,-0.23c0.977,-0.256 1.516,-0.652 1.617,-1.189Zm-12.09,0c0.02,-0.093 0.03,-0.187 0.03,-0.281c0,-0.52 -0.232,-1.018 -0.695,-1.495c0.121,0.332 0.181,0.669 0.181,1.009c0,0.307 -0.06,0.576 -0.181,0.806c-0.363,0.656 -1.164,1.116 -2.403,1.38c0.554,-0.043 1.033,-0.119 1.436,-0.23c0.977,-0.256 1.521,-0.652 1.632,-1.189Z" style="fill-rule:nonzero;"/><path d="M174.867,32.139l-30.95,0l-0,-12.167l2.1,-0l0,-3.835l4.368,0l-0,1.917l0.68,0l-0,-6.556l2.69,-0l-0,5.457l0.619,0l0,-9.075l6.196,0l0,8.078l1.769,0l-0,-3.016l1.904,-0l-0,-2.633l3.37,-0l-0,8.052l1.239,0l-0,-2.403l3.838,0l0,4.014l2.177,-0l-0,12.167Zm-8.478,-19.99l-0,-1.533l-0.726,-0l0,1.533l0.726,0Zm-1.028,0l0,-1.533l-0.725,-0l-0,1.533l0.725,0Zm5.728,5.663l-0,-1.534l-0.726,-0l0,1.534l0.726,-0Zm-1.028,-0l-0,-1.534l-0.725,-0l-0,1.534l0.725,-0Zm-4.7,-3.797l0,-1.533l-0.725,-0l-0,1.533l0.725,0Zm4.7,5.663l-0,-1.534l-0.725,-0l-0,1.534l0.725,-0Zm-11.47,-9.65l-0,-1.534l-0.726,-0l0,1.534l0.726,-0Zm-1.345,-0l-0,-1.534l-0.726,-0l0,1.534l0.726,-0Zm-1.375,-0l-0,-1.534l-0.726,-0l0,1.534l0.726,-0Zm1.375,2.096l-0,-1.534l-0.726,0l0,1.534l0.726,-0Zm11.153,10.302l-0,-1.534l-0.726,-0l0,1.534l0.726,-0Zm-12.528,-10.302l-0,-1.534l-0.726,0l0,1.534l0.726,-0Zm11.485,10.302l-0,-1.534l-0.726,-0l0,1.534l0.726,-0Zm-11.485,-8.244l-0,-1.534l-0.726,-0l0,1.534l0.726,-0Zm11.485,10.11l-0,-1.534l-0.726,-0l0,1.534l0.726,-0Zm-13.903,-10.941l-0,-1.521l-0.726,-0l0,1.521l0.726,-0Zm-1.376,-0l0,-1.521l-0.725,-0l-0,1.521l0.725,-0Zm5.894,5.611l0,-1.534l-0.725,0l-0,1.534l0.725,-0Zm-1.375,-0l-0,-1.534l-0.725,0l-0,1.534l0.725,-0Zm-4.519,-3.502l0,-1.534l-0.725,0l-0,1.534l0.725,-0Zm8.826,9.126l-0,-1.534l-0.725,-0l-0,1.534l0.725,-0Zm-4.307,-3.528l-0,-1.534l-0.725,0l-0,1.534l0.725,0Zm3.264,3.528l0,-1.534l-0.725,-0l-0,1.534l0.725,-0Zm0,1.853l0,-1.534l-0.725,0l-0,1.534l0.725,-0Zm-11.289,-8.308l0,-1.534l-0.725,0l-0,1.534l0.725,0Zm2.524,2.646l0,-1.534l-0.725,0l-0,1.534l0.725,-0Zm-3.778,-2.646l0,-1.534l-0.725,0l-0,1.534l0.725,0Zm2.75,2.646l0,-1.534l-0.725,0l0,1.534l0.725,-0Zm0,1.866l0,-1.534l-0.725,0l0,1.534l0.725,-0Z" style="fill-rule:nonzero;"/><path d="M196.441,12.788l-2.085,0l-0.831,-0.511l2.206,0l0,-1.879l0.71,0.716l0,1.674Zm1.149,2.071l-2.856,-1.815l1.995,0l-0,-1.994l-1.043,-1.086l-2.569,-0.192l0.257,-0.498c0.151,-0.188 0.398,-0.282 0.74,-0.282c0.494,0 0.937,0.09 1.33,0.269c0.393,0.179 0.826,0.485 1.3,0.92l0.846,3.374l-0,1.304Zm-5.561,-5.151c-1.018,-0.068 -1.892,-0.119 -2.622,-0.153c-0.731,-0.034 -1.645,-0.043 -2.743,-0.026l1.088,-2.364c0.201,-0.256 0.594,-0.38 1.179,-0.371c0.997,0.026 1.904,0.337 2.72,0.933l0.378,1.981Zm6.966,8.461c-1.188,-0.323 -2.226,-0.651 -3.113,-0.984c-0.645,-0.247 -1.481,-0.605 -2.508,-1.073l-0,-3.643l4.866,3.131l-0,1.074l0.755,0.486l0,1.009Zm-3.566,-8.001l-0,1.854l-2.388,-0l0,3.923c-2.539,-1.329 -4.322,-2.266 -5.35,-2.811c-2.055,-1.091 -4.427,-1.781 -7.117,-2.071l-0,-1.086c2.871,-0.171 5.244,-0.252 7.117,-0.243c1.955,0.017 4.534,0.162 7.738,0.434Zm5.229,8.615c-0.01,0.477 -0.046,0.865 -0.106,1.163c-0.071,0.375 -0.161,0.695 -0.272,0.959c-1.602,0.639 -3.4,1.184 -5.395,1.636c-1.753,0.4 -3.496,0.6 -5.229,0.6c-2.599,0 -4.141,0.017 -4.624,0.052c-1.733,0.136 -3.219,0.728 -4.458,1.776l-0.62,-7.605c-0.171,-2.028 -0.68,-4.094 -1.526,-6.199c1.863,-0.068 3.954,0.277 6.271,1.036c1.33,0.434 3.003,1.192 5.017,2.275c2.408,1.303 4.04,2.138 4.897,2.505c1.884,0.801 3.899,1.401 6.045,1.802Zm-21.021,-0.69c-0.242,-0.614 -0.736,-1.415 -1.481,-2.403c-0.857,-1.142 -1.34,-2.054 -1.451,-2.735c-0.01,-0.086 -0.015,-0.171 -0.015,-0.256c-0,-0.724 0.413,-1.227 1.239,-1.508c0.604,1.312 1.038,2.688 1.3,4.128c0.151,0.827 0.287,1.751 0.408,2.774Zm24.013,14.046l-30.95,0l0,-12.167l7.118,-0l0.212,3.54c-0.635,-0.469 -1.22,-0.733 -1.753,-0.792c-0.434,-0.043 -0.877,0.025 -1.33,0.204c-0.403,0.179 -0.801,0.354 -1.194,0.524c-0.242,0.102 -0.449,0.145 -0.62,0.128c-0.473,-0.017 -1.017,-0.115 -1.632,-0.294l0,0.396c0.474,0.162 1.033,0.26 1.678,0.294c0.251,0.009 0.725,-0.153 1.42,-0.486c0.655,-0.306 1.209,-0.434 1.662,-0.383c0.796,0.085 1.426,0.481 1.889,1.189l0.121,1.482c1.471,-1.372 3.063,-2.121 4.776,-2.249c0.302,-0.017 1.244,0.149 2.826,0.498c1.662,0.367 3.002,0.541 4.02,0.524c0.906,-0.025 2.171,-0.174 3.793,-0.447l-0,-0.371c-1.582,0.299 -2.872,0.448 -3.869,0.448c-1.118,-0 -2.64,-0.23 -4.564,-0.691l2.887,0.013c1.682,-0.034 3.239,-0.23 4.669,-0.588c2.025,-0.519 3.919,-1.137 5.682,-1.853c0.041,-0.119 0.101,-0.302 0.182,-0.55c0.04,-0.136 0.085,-0.315 0.136,-0.536l2.841,-0l-0,12.167Zm-8.931,-20.475l-0,-0.997l-4.292,-0l-0,0.997l4.292,-0Zm2.992,4.652c-0,-0.332 -0.111,-0.498 -0.333,-0.498c-0.211,-0 -0.317,0.166 -0.317,0.498c0,0.332 0.106,0.499 0.317,0.499c0.222,-0 0.333,-0.167 0.333,-0.499Zm-1.406,-0.754c0,-0.358 -0.115,-0.537 -0.347,-0.537c-0.232,0 -0.348,0.179 -0.348,0.537c0,0.366 0.116,0.55 0.348,0.55c0.232,-0 0.347,-0.184 0.347,-0.55Zm-1.556,-0.882c-0,-0.4 -0.126,-0.601 -0.378,-0.601c-0.252,0 -0.378,0.201 -0.378,0.601c0,0.401 0.126,0.601 0.378,0.601c0.252,-0 0.378,-0.2 0.378,-0.601Zm-4.761,-3.016l0,-0.997l-4.382,-0l-0,0.997l4.382,-0Zm-4.715,-0l0,-0.997l-4.125,-0l-0,0.307c0.342,0.051 0.831,0.132 1.466,0.242c0.372,0.077 0.962,0.226 1.768,0.448l0.891,-0Z" style="fill-rule:nonzero;"/><path d="M224.787,15.485l-2.01,0.716l-5.32,-0.843l-6.226,-2.633l-1.632,-3.03l9.853,-0.268l0.589,0.217l4.746,5.841Zm-8.917,-0.703l-4.639,6.736l-0.59,-0.23l4.595,-6.774l0.634,0.268Zm16.563,17.357c-6.397,-0.357 -9.596,-1.282 -9.596,-2.773c0,-0.452 0.64,-0.865 1.919,-1.24c1.199,-0.324 2.393,-0.652 3.582,-0.984c1.289,-0.443 1.934,-0.967 1.934,-1.572c0,-0.469 -0.645,-0.844 -1.934,-1.125c-1.088,-0.247 -2.322,-0.375 -3.703,-0.383c-4.402,-0.043 -6.604,0.328 -6.604,1.112c0,0.213 0.378,0.438 1.134,0.677c0.755,0.239 1.133,0.46 1.133,0.665c0,0.306 -0.972,0.46 -2.916,0.46c-0.504,-0 -1.371,-0.017 -2.6,-0.051c-1.128,-0.026 -1.944,-0.034 -2.448,-0.026c-5.783,0.068 -8.674,0.622 -8.674,1.662c-0,0.349 0.524,0.711 1.571,1.086c1.048,0.375 1.572,0.758 1.572,1.15c-0,0.461 -0.766,0.818 -2.297,1.074c-0.957,0.153 -1.965,0.243 -3.023,0.268l0,-12.167c3.486,-0.461 6.227,-0.691 8.222,-0.691c0.826,0 1.501,0.017 2.025,0.052l-1.345,2.006l0.891,0.358l1.542,-2.237c0.614,0.077 1.279,0.115 1.994,0.115c0.887,0 2.353,-0.098 4.398,-0.294c1.995,-0.187 3.592,-0.277 4.791,-0.268c2.005,0.017 4.815,0.337 8.432,0.959l0,12.167Zm-4.216,-6.518c-0,0.477 -0.751,0.929 -2.252,1.355c-1.39,0.341 -2.78,0.686 -4.171,1.035c-1.511,0.418 -2.272,0.856 -2.282,1.317c-0.04,1.193 2.741,2.13 8.342,2.811l-5.44,0c-0.917,-0.221 -1.703,-0.447 -2.358,-0.677c-1.571,-0.545 -2.367,-1.078 -2.387,-1.598c-0,-0.034 0.03,-0.319 0.03,-0.37c-0,-0.656 -1.013,-0.997 -3.038,-1.023c-1.037,-0.008 -1.994,0.039 -2.871,0.141c-1.007,0.119 -1.511,0.281 -1.511,0.486c-0,0.298 0.677,0.59 2.032,0.875c1.355,0.285 2.033,0.573 2.033,0.863c-0,0.801 -1.164,1.235 -3.491,1.303l-4.534,0c3.093,-0.272 4.64,-0.707 4.64,-1.303c-0,-0.315 -0.756,-0.644 -2.267,-0.984c-1.511,-0.341 -2.267,-0.652 -2.267,-0.933c0,-0.384 0.695,-0.648 2.086,-0.793c0.947,-0.094 2.69,-0.153 5.228,-0.179c1.733,-0.025 3.507,-0.123 5.32,-0.294c2.408,-0.23 3.612,-0.52 3.612,-0.869c-0,-0.324 -0.36,-0.601 -1.081,-0.831c-0.72,-0.23 -1.08,-0.387 -1.08,-0.473c-0,-0.511 1.425,-0.745 4.277,-0.703c2.286,0.026 3.43,0.307 3.43,0.844Zm-11.833,-1.023l-3.506,-0.421l0.861,-1.023l-2.72,0.729l-3.4,-0.69l2.358,1.06l-2.464,0.806l3.763,-0.243l1.602,1.482l-0.045,-1.482l3.551,-0.218Z" style="fill-rule:nonzero;"/><path d="M256.94,21.454c-0,0.946 -0.106,1.777 -0.317,2.493c-0.323,1.124 -0.852,1.687 -1.587,1.687c-0.192,-0 -0.61,-0.183 -1.255,-0.55c-0.785,-0.451 -2.287,-0.826 -4.503,-1.125c-1.834,-0.255 -3.441,-0.383 -4.821,-0.383c-0.373,-0 -0.559,0.26 -0.559,0.78c0,0.179 0.081,0.432 0.242,0.76c0.161,0.328 0.242,0.586 0.242,0.773c-0,0.188 0.128,0.397 0.385,0.627c0.257,0.23 0.385,0.413 0.385,0.549c0,0.034 -0.012,0.085 -0.037,0.154c-0.026,0.068 -0.038,0.119 -0.038,0.153c-0,0.119 0.118,0.29 0.355,0.511c0.237,0.222 0.355,0.414 0.355,0.575c0,0.077 -0.038,0.175 -0.113,0.294c-0.076,0.12 -0.114,0.213 -0.114,0.282c0,0.102 0.063,0.219 0.189,0.351c0.126,0.132 0.189,0.224 0.189,0.275c0,0.153 -0.242,0.23 -0.725,0.23c-1.068,-0 -1.819,-0.264 -2.252,-0.792c-0.262,-0.324 -0.519,-1.002 -0.771,-2.033c-0.463,-1.925 -1.264,-2.888 -2.402,-2.888c-0.051,-0 -0.116,0.006 -0.197,0.019c-0.081,0.013 -0.141,0.019 -0.181,0.019c-1.29,0 -1.935,-0.997 -1.935,-2.991c0,-1.142 0.66,-1.964 1.98,-2.467c0.685,-0.213 1.708,-0.549 3.068,-1.009c1.43,-0.512 2.997,-1.296 4.7,-2.352c1.602,-0.98 2.725,-1.819 3.37,-2.518c0.272,-1.176 0.821,-1.764 1.647,-1.764c0.987,0 1.939,0.92 2.856,2.761c0.625,1.244 1.093,2.552 1.406,3.924c0.292,1.235 0.438,2.454 0.438,3.655Zm-18.588,2.62c-1.088,-0.059 -1.859,-0.179 -2.312,-0.357c-0.716,-0.299 -1.073,-0.84 -1.073,-1.624c-0,-0.775 0.292,-1.35 0.876,-1.725c0.02,-0.017 0.695,-0.32 2.025,-0.908c-0.483,0.452 -0.725,1.142 -0.725,2.071c-0,1.125 0.403,1.973 1.209,2.543Zm14.734,-3.476c0,-0.903 -0.181,-1.751 -0.544,-2.544c-0.413,-0.886 -0.972,-1.508 -1.677,-1.866c0.393,3.034 0.987,5.309 1.783,6.826c0.292,-0.75 0.438,-1.555 0.438,-2.416Zm-0.015,3.719c-0.896,-1.142 -1.607,-2.586 -2.131,-4.333c-0.483,-1.61 -0.725,-3.165 -0.725,-4.665l0.212,-1.457c-0.686,0.741 -1.617,1.436 -2.796,2.083c-1.058,0.537 -2.121,1.078 -3.189,1.624c-1.249,0.656 -1.874,1.418 -1.874,2.288c0,0.758 0.161,1.414 0.484,1.968c0.403,0.682 0.997,1.078 1.783,1.189c0.06,0.008 0.62,0.029 1.677,0.063c2.499,0.086 4.685,0.499 6.559,1.24Zm-15.853,-0.779c-0.392,-0.929 -0.589,-1.658 -0.589,-2.186c0,-0.366 0.055,-0.677 0.166,-0.933l-0.332,0.077c-0.131,0.392 -0.197,0.809 -0.197,1.252c0,0.367 0.177,0.963 0.529,1.79l0.423,-0Zm-0.831,-0.077c-0.362,-0.733 -0.544,-1.257 -0.544,-1.572c0,-0.315 0.041,-0.707 0.121,-1.176l-0.423,0.243c-0.071,0.341 -0.106,0.66 -0.106,0.958c0,0.392 0.197,0.87 0.59,1.432l0.362,0.115Z" style="fill-rule:nonzero;"/><path d="M271.578,12.201c0,1.065 -0.461,1.974 -1.383,2.728c-0.921,0.754 -2.032,1.132 -3.332,1.132c-1.299,-0 -2.41,-0.378 -3.332,-1.132c-0.922,-0.754 -1.383,-1.663 -1.383,-2.728c0,-1.066 0.461,-1.973 1.383,-2.723c0.922,-0.75 2.033,-1.125 3.332,-1.125c1.3,0 2.411,0.375 3.332,1.125c0.922,0.75 1.383,1.657 1.383,2.723Zm18.422,19.938l-30.95,0l0,-12.167c0.333,-0.009 0.665,-0.034 0.998,-0.077c0.795,-0.102 1.541,-0.277 2.236,-0.524c0.756,-0.273 1.521,-0.746 2.297,-1.419l3.4,0.652c0.665,0.247 1.386,0.703 2.162,1.368c0.523,-0.009 1.022,-0.034 1.496,-0.077c1.128,-0.102 2.04,-0.277 2.735,-0.524c0.766,-0.273 1.531,-0.746 2.297,-1.419l3.4,0.652c0.675,0.247 1.396,0.703 2.161,1.368l0,-3.26l-2.977,0c-0.332,0 -0.68,-0.149 -1.043,-0.447c-0.362,-0.298 -0.544,-0.618 -0.544,-0.959l0,-4.077c0,-0.699 0.318,-1.048 0.952,-1.048c0.655,0 0.983,0.349 0.983,1.048l-0,3.259c-0,0.546 0.408,0.818 1.224,0.818l1.405,0l0,-6.429c0,-0.707 0.323,-1.06 0.967,-1.06c0.635,-0 0.953,0.353 0.953,1.06l-0,8.014l0.649,0c0.625,0 0.937,-0.272 0.937,-0.818l0,-1.942c0,-0.708 0.323,-1.061 0.968,-1.061c0.634,-0 0.952,0.353 0.952,1.061l-0,2.76c-0,0.341 -0.182,0.661 -0.544,0.959c-0.363,0.298 -0.711,0.447 -1.043,0.447l-1.919,0l-0,1.675l5.848,-0l-0,12.167Zm-12.468,-11.797c0.021,-0.093 0.031,-0.187 0.031,-0.281c-0,-0.52 -0.232,-1.018 -0.696,-1.495c0.121,0.332 0.182,0.669 0.182,1.009c-0,0.307 -0.061,0.576 -0.182,0.806c-0.352,0.656 -1.148,1.116 -2.387,1.38c0.544,-0.043 1.022,-0.119 1.435,-0.23c0.978,-0.256 1.517,-0.652 1.617,-1.189Zm-12.089,0c0.02,-0.093 0.03,-0.187 0.03,-0.281c-0,-0.52 -0.232,-1.018 -0.695,-1.495c0.121,0.332 0.181,0.669 0.181,1.009c0,0.307 -0.06,0.576 -0.181,0.806c-0.363,0.656 -1.164,1.116 -2.403,1.38c0.554,-0.043 1.033,-0.119 1.436,-0.23c0.977,-0.256 1.521,-0.652 1.632,-1.189Z" style="fill-rule:nonzero;"/></svg>