<?xml version="1.0" encoding="UTF-8" standalone="no"?>
<!DOCTYPE svg PUBLIC "-//W3C//DTD SVG 1.1//EN" "http://www.w3.org/Graphics/SVG/1.1/DTD/svg11.dtd">
<svg width="100%" height="100%" viewBox="0 0 290 30" version="1.1" xmlns="http://www.w3.org/2000/svg" xmlns:xlink="http://www.w3.org/1999/xlink" xml:space="preserve" xmlns:serif="http://www.serif.com/" style="fill-rule:evenodd;clip-rule:evenodd;stroke-linejoin:round;stroke-miterlimit:2;">
    <g transform="matrix(1,0,0,1,-95.2087,0.0316909)">
        <g transform="matrix(1,0,0,0.97866,95.2087,0.314405)">
            <path d="M12.918,29.997C4.784,29.997 0,23.458 0,15.325C0,6.873 5.263,0.015 15.31,0.015C25.676,0.015 29.184,7.032 29.343,11.019L21.848,11.019C21.689,8.786 19.775,5.437 15.15,5.437C10.206,5.437 7.017,9.743 7.017,15.006C7.017,20.269 10.206,24.574 15.15,24.574C19.615,24.574 21.529,21.066 22.327,17.557L15.15,17.557L15.15,14.687L30.209,14.687L30.209,29.359L23.602,29.359L23.602,20.109C23.124,23.458 21.051,29.997 12.918,29.997Z" style="fill-rule:nonzero;"/>
        </g>
        <g transform="matrix(1,0,0,0.974361,95.2044,0.443753)">
            <path d="M43.603,29.996C37.384,29.996 33.556,25.85 33.556,17.557L33.556,0.493L40.254,0.493L40.254,17.557C40.254,21.863 42.327,23.936 45.836,23.936C52.693,23.936 55.245,15.484 55.245,9.583L55.245,0.493L61.943,0.493L61.943,29.358L55.404,29.358L55.404,18.673C54.128,24.574 50.62,29.996 43.603,29.996Z" style="fill-rule:nonzero;"/>
        </g>
        <g transform="matrix(0.973047,0,0,0.978801,96.8049,0.329218)">
            <path d="M101.968,0C96.253,0 92.649,5.52 91.472,10.624C91.271,3.784 87.907,0 82.525,0C77.875,0 73.561,4.147 72.441,10.707L72.441,0.491L65.911,0.491L65.911,29.357L72.524,29.357L72.524,19.009C72.524,16.443 73.594,5.915 80.251,5.915C84.563,5.915 85.013,9.805 85.013,15.122L85.013,29.357L91.623,29.357L91.623,19.009C91.623,16.443 92.737,5.915 99.394,5.915C103.703,5.915 104.148,9.805 104.148,15.122L104.148,29.357L110.767,29.357L110.767,12.283C110.797,4.092 107.905,0 101.968,0Z" style="fill-rule:nonzero;"/>
        </g>
    </g>
    <g transform="matrix(1.39976,0,0,1.33708,-40.5412,16.2908)">
        <g transform="matrix(30.061,0,0,30.061,59.4043,9.57967)">
        </g>
        <text x="34.634px" y="9.58px" style="font-family:'KyivTypeSans-Bold-', 'KyivType Sans';font-weight:700;font-size:30.061px;fill-opacity:0;">G</text>
    </g>
    <g transform="matrix(1,0,0,1,-0.951642,12.8116)">
        <g transform="matrix(1.04688,0,0,1,-5.29316,0)">
            <text x="112.901px" y="16.586px" style="font-family:'KyivTypeSans-Bold-', 'KyivType Sans';font-weight:700;font-size:40.194px;">T</text>
        </g>
        <g transform="matrix(1.04688,0,0,1,-6.56954,0)">
            <text x="140.125px" y="16.586px" style="font-family:'MabryPro-Bold', 'Mabry Pro', sans-serif;font-weight:700;font-size:40.194px;">E</text>
        </g>
        <g transform="matrix(1.04688,0,0,1,-7.7097,0)">
            <text x="164.445px" y="16.586px" style="font-family:'KyivTypeSans-Bold-', 'KyivType Sans';font-weight:700;font-size:40.194px;">C<tspan x="192.812px 218.817px 229.775px " y="16.586px 16.586px 16.586px ">TIV</tspan></text>
        </g>
        <g transform="matrix(1.04688,0,0,1,-12.3425,0)">
            <g transform="matrix(40.1939,0,0,40.1939,289.305,16.5855)">
            </g>
            <text x="263.261px" y="16.586px" style="font-family:'MabryPro-Bold', 'Mabry Pro', sans-serif;font-weight:700;font-size:40.194px;">E</text>
        </g>
    </g>
</svg>
