<svg viewBox="0 0 238 30" xmlns="http://www.w3.org/2000/svg" xml:space="preserve" style="fill-rule:evenodd;clip-rule:evenodd;stroke-linejoin:round;stroke-miterlimit:2"><path d="M12.917 29.671C4.784 29.671 0 23.272 0 15.312 0 7.04 5.263.329 15.31.329c10.365 0 13.874 6.867 14.033 10.769h-7.495c-.159-2.185-2.073-5.462-6.698-5.462-4.944 0-8.133 4.214-8.133 9.364s3.189 9.364 8.133 9.364c4.465 0 6.379-3.433 7.176-6.867H15.15v-2.809h15.059v14.358h-6.607v-9.052c-.478 3.278-2.551 9.677-10.685 9.677zM108.126 29.671c-8.133 0-12.917-6.399-12.917-14.359 0-8.272 5.262-14.983 15.309-14.983 10.366 0 13.875 6.867 14.034 10.769h-7.495c-.16-2.185-2.073-5.462-6.698-5.462-4.944 0-8.133 4.214-8.133 9.364s3.189 9.364 8.133 9.364c4.465 0 6.379-3.433 7.176-6.867h-7.176v-2.809h15.058v14.358h-6.606v-9.052c-.478 3.278-2.552 9.677-10.685 9.677zM138.807 29.671c-6.219 0-10.046-4.04-10.046-12.12V.924h6.697v16.627c0 4.195 2.074 6.215 5.582 6.215 6.858 0 9.409-8.235 9.409-13.985V.924h6.698v28.125h-6.538V18.638c-1.276 5.75-4.785 11.033-11.802 11.033zM46.95.329C38.389.329 32.588 6.895 32.588 15c0 8.93 5.517 14.671 14.362 14.671 8.561 0 14.465-6.566 14.465-14.671C61.415 6.07 55.791.329 46.95.329zm0 24.344c-4.984 0-8.212-4.127-8.212-9.673s3.239-9.673 8.212-9.673c4.972 0 8.082 4.127 8.082 9.673s-3.113 9.673-8.082 9.673z" style="fill-rule:nonzero"/><path d="M.356.015c.15 0 .244-.11.264-.277V0h.134v-.36H.415v.02H.62v.011a.2.2 0 0 1-.202.208c-.121 0-.206-.093-.206-.224 0-.129.081-.22.201-.22.083 0 .146.046.168.12h.168C.72-.604.585-.715.408-.715a.35.35 0 0 0-.359.365c0 .22.132.365.307.365z" style="fill-opacity:0;fill-rule:nonzero" transform="matrix(42.07819 0 0 40.19396 -2.062 29.068)"/><path d="M.416.015c.21 0 .367-.156.367-.365a.357.357 0 0 0-.367-.365.357.357 0 0 0-.367.365c0 .209.157.365.367.365zm0-.157A.2.2 0 0 1 .213-.35a.2.2 0 0 1 .203-.209c.117 0 .204.089.204.209a.2.2 0 0 1-.204.208z" style="fill-opacity:0;fill-rule:nonzero" transform="matrix(42.07819 0 0 40.19396 29.665 29.068)"/><path d="M.662-.7v.145h-.24V0h-.16v-.555h-.24V-.7h.64z" style="fill-rule:nonzero" transform="matrix(42.07819 0 0 40.19396 61.729 29.068)"/><path d="M.356.015c.15 0 .244-.11.264-.277V0h.134v-.36H.415v.02H.62v.011a.2.2 0 0 1-.202.208c-.121 0-.206-.093-.206-.224 0-.129.081-.22.201-.22.083 0 .146.046.168.12h.168C.72-.604.585-.715.408-.715a.35.35 0 0 0-.359.365c0 .22.132.365.307.365z" style="fill-opacity:0;fill-rule:nonzero" transform="matrix(42.07819 0 0 40.19396 96.385 29.068)"/><path d="M.409.015c.196 0 .323-.127.323-.322V-.7h-.16v.385c0 .111-.059.176-.163.176-.104 0-.164-.065-.164-.176V-.7h-.16v.393c0 .195.128.322.324.322z" style="fill-opacity:0;fill-rule:nonzero" transform="matrix(42.07819 0 0 40.19396 129.373 29.068)"/><path d="M.258 0v-.639L.47 0h.024l.212-.639V0h.16v-.7H.703l-.221.671L.262-.7H.098V0h.16z" style="fill-opacity:0;fill-rule:nonzero" transform="matrix(42.07819 0 0 40.19396 162.068 29.068)"/><path d="M.36-.25c0-.048.022-.066.087-.098.084-.035.135-.088.135-.168 0-.124-.107-.199-.266-.199-.168 0-.278.093-.292.24h.157C.19-.539.235-.582.312-.582c.062 0 .109.026.109.072.001.035-.019.059-.07.082-.081.033-.123.075-.123.149 0 .009 0 .019.002.029h.13zM.3.01a.093.093 0 0 0 .095-.095A.093.093 0 0 0 .3-.18a.093.093 0 0 0-.095.095C.205-.031.246.01.3.01z" style="fill-rule:nonzero" transform="matrix(42.07819 0 0 40.19396 209.785 29.068)"/><path d="M196.025.329c-5.561 0-9.069 5.403-10.214 10.399-.196-6.695-3.469-10.399-8.706-10.399-4.524 0-8.722 4.059-9.812 10.48V.81h-6.354v28.254h6.435V18.935c0-2.511 1.041-12.816 7.519-12.816 4.196 0 4.633 3.807 4.633 9.012v13.933h6.432V18.935c0-2.511 1.084-12.816 7.562-12.816 4.193 0 4.626 3.807 4.626 9.012v13.933h6.44V12.352c.03-8.018-2.785-12.023-8.561-12.023z" style="fill-rule:nonzero"/></svg>