<?xml version="1.0" encoding="UTF-8" standalone="no"?><!DOCTYPE svg PUBLIC "-//W3C//DTD SVG 1.1//EN" "http://www.w3.org/Graphics/SVG/1.1/DTD/svg11.dtd"><svg width="100%" height="100%" viewBox="0 0 238 30" version="1.1" xmlns="http://www.w3.org/2000/svg" xmlns:xlink="http://www.w3.org/1999/xlink" xml:space="preserve" xmlns:serif="http://www.serif.com/" style="fill-rule:evenodd;clip-rule:evenodd;stroke-linejoin:round;stroke-miterlimit:2;"><g><path d="M12.917,29.671c-8.133,-0 -12.917,-6.399 -12.917,-14.359c-0,-8.272 5.263,-14.983 15.31,-14.983c10.365,0 13.874,6.867 14.033,10.769l-7.495,0c-0.159,-2.185 -2.073,-5.462 -6.698,-5.462c-4.944,-0 -8.133,4.214 -8.133,9.364c-0,5.15 3.189,9.364 8.133,9.364c4.465,0 6.379,-3.433 7.176,-6.867l-7.176,0l0,-2.809l15.059,-0l-0,14.358l-6.607,0l0,-9.052c-0.478,3.278 -2.551,9.677 -10.685,9.677Z" style="fill-rule:nonzero;"/><path d="M108.126,29.671c-8.133,-0 -12.917,-6.399 -12.917,-14.359c-0,-8.272 5.262,-14.983 15.309,-14.983c10.366,0 13.875,6.867 14.034,10.769l-7.495,0c-0.16,-2.185 -2.073,-5.462 -6.698,-5.462c-4.944,-0 -8.133,4.214 -8.133,9.364c-0,5.15 3.189,9.364 8.133,9.364c4.465,0 6.379,-3.433 7.176,-6.867l-7.176,0l-0,-2.809l15.058,-0l0,14.358l-6.606,0l-0,-9.052c-0.478,3.278 -2.552,9.677 -10.685,9.677Z" style="fill-rule:nonzero;"/><path d="M138.807,29.671c-6.219,-0 -10.046,-4.04 -10.046,-12.12l-0,-16.627l6.697,0l0,16.627c0,4.195 2.074,6.215 5.582,6.215c6.858,0 9.409,-8.235 9.409,-13.985l0,-8.857l6.698,0l0,28.125l-6.538,0l-0,-10.411c-1.276,5.75 -4.785,11.033 -11.802,11.033Z" style="fill-rule:nonzero;"/><path d="M46.95,0.329c-8.561,0 -14.362,6.566 -14.362,14.671c-0,8.93 5.517,14.671 14.362,14.671c8.561,-0 14.465,-6.566 14.465,-14.671c-0,-8.93 -5.624,-14.671 -14.465,-14.671Zm-0,24.344c-4.984,0 -8.212,-4.127 -8.212,-9.673c0,-5.546 3.239,-9.673 8.212,-9.673c4.972,-0 8.082,4.127 8.082,9.673c0,5.546 -3.113,9.673 -8.082,9.673Z" style="fill-rule:nonzero;"/><g transform="matrix(1.39976,0,0,1.33708,-50.5412,16.2591)"><g transform="matrix(30.061,0,0,30.061,34.634,9.57967)"><path d="M0.356,0.015c0.15,0 0.244,-0.11 0.264,-0.277l0,0.262l0.134,-0l0,-0.36l-0.339,0l0,0.02l0.205,-0l0,0.011c0,0.117 -0.085,0.208 -0.202,0.208c-0.121,-0 -0.206,-0.093 -0.206,-0.224c0,-0.129 0.081,-0.22 0.201,-0.22c0.083,-0 0.146,0.046 0.168,0.12l0.168,-0c-0.029,-0.159 -0.164,-0.27 -0.341,-0.27c-0.207,0 -0.359,0.153 -0.359,0.365c0,0.22 0.132,0.365 0.307,0.365Z" style="fill-opacity:0;fill-rule:nonzero;"/></g><g transform="matrix(30.061,0,0,30.061,57.3,9.57967)"><path d="M0.416,0.015c0.21,0 0.367,-0.156 0.367,-0.365c0,-0.209 -0.157,-0.365 -0.367,-0.365c-0.21,0 -0.367,0.156 -0.367,0.365c-0,0.209 0.157,0.365 0.367,0.365Zm0,-0.157c-0.117,-0 -0.203,-0.088 -0.203,-0.208c-0,-0.12 0.086,-0.209 0.203,-0.209c0.117,-0 0.204,0.089 0.204,0.209c-0,0.12 -0.087,0.208 -0.204,0.208Z" style="fill-opacity:0;fill-rule:nonzero;"/></g><g transform="matrix(30.061,0,0,30.061,80.2065,9.57967)"><path d="M0.662,-0.7l0,0.145l-0.24,-0l-0,0.555l-0.16,-0l0,-0.555l-0.24,-0l-0,-0.145l0.64,-0Z" style="fill-rule:nonzero;"/></g><g transform="matrix(30.061,0,0,30.061,104.965,9.57967)"><path d="M0.356,0.015c0.15,0 0.244,-0.11 0.264,-0.277l0,0.262l0.134,-0l0,-0.36l-0.339,0l0,0.02l0.205,-0l0,0.011c0,0.117 -0.085,0.208 -0.202,0.208c-0.121,-0 -0.206,-0.093 -0.206,-0.224c0,-0.129 0.081,-0.22 0.201,-0.22c0.083,-0 0.146,0.046 0.168,0.12l0.168,-0c-0.029,-0.159 -0.164,-0.27 -0.341,-0.27c-0.207,0 -0.359,0.153 -0.359,0.365c0,0.22 0.132,0.365 0.307,0.365Z" style="fill-opacity:0;fill-rule:nonzero;"/></g><g transform="matrix(30.061,0,0,30.061,128.532,9.57967)"><path d="M0.409,0.015c0.196,0 0.323,-0.127 0.323,-0.322l0,-0.393l-0.16,-0l0,0.385c0,0.111 -0.059,0.176 -0.163,0.176c-0.104,-0 -0.164,-0.065 -0.164,-0.176l0,-0.385l-0.16,-0l0,0.393c0,0.195 0.128,0.322 0.324,0.322Z" style="fill-opacity:0;fill-rule:nonzero;"/></g><g transform="matrix(30.061,0,0,30.061,151.89,9.57967)"><path d="M0.258,-0l0,-0.639l0.212,0.639l0.024,-0l0.212,-0.639l0,0.639l0.16,-0l0,-0.7l-0.163,0l-0.221,0.671l-0.22,-0.671l-0.164,0l0,0.7l0.16,-0Z" style="fill-opacity:0;fill-rule:nonzero;"/></g><g transform="matrix(30.061,0,0,30.061,185.979,9.57967)"><path d="M0.36,-0.25c0,-0.048 0.022,-0.066 0.087,-0.098c0.084,-0.035 0.135,-0.088 0.135,-0.168c-0,-0.124 -0.107,-0.199 -0.266,-0.199c-0.168,0 -0.278,0.093 -0.292,0.24l0.157,0c0.009,-0.064 0.054,-0.107 0.131,-0.107c0.062,0 0.109,0.026 0.109,0.072c0.001,0.035 -0.019,0.059 -0.07,0.082c-0.081,0.033 -0.123,0.075 -0.123,0.149c-0,0.009 -0,0.019 0.002,0.029l0.13,0Zm-0.06,0.26c0.054,-0 0.095,-0.041 0.095,-0.095c0,-0.054 -0.041,-0.095 -0.095,-0.095c-0.054,0 -0.095,0.041 -0.095,0.095c-0,0.054 0.041,0.095 0.095,0.095Z" style="fill-rule:nonzero;"/></g></g><path d="M196.025,0.329c-5.561,0 -9.069,5.403 -10.214,10.399c-0.196,-6.695 -3.469,-10.399 -8.706,-10.399c-4.524,0 -8.722,4.059 -9.812,10.48l-0,-9.999l-6.354,-0l0,28.254l6.435,-0l0,-10.129c0,-2.511 1.041,-12.816 7.519,-12.816c4.196,-0 4.633,3.807 4.633,9.012l0,13.933l6.432,-0l0,-10.129c0,-2.511 1.084,-12.816 7.562,-12.816c4.193,-0 4.626,3.807 4.626,9.012l-0,13.933l6.44,-0l0,-16.712c0.03,-8.018 -2.785,-12.023 -8.561,-12.023Z" style="fill-rule:nonzero;"/></g></svg>