<?xml version="1.0" encoding="UTF-8" standalone="no"?><!DOCTYPE svg PUBLIC "-//W3C//DTD SVG 1.1//EN" "http://www.w3.org/Graphics/SVG/1.1/DTD/svg11.dtd"><svg width="100%" height="100%" viewBox="0 0 4500 750" version="1.1" xmlns="http://www.w3.org/2000/svg" xmlns:xlink="http://www.w3.org/1999/xlink" xml:space="preserve" xmlns:serif="http://www.serif.com/" style="fill-rule:evenodd;clip-rule:evenodd;stroke-linecap:square;stroke-linejoin:round;stroke-miterlimit:1.5;"><rect id="Artboard1" x="0" y="0" width="4500" height="750" style="fill:none;"/><clipPath id="_clip1"><rect x="0" y="0" width="4500" height="750"/></clipPath><g clip-path="url(#_clip1)"><g transform="matrix(54.0231,0,0,54.0231,-3881.32,-7050.2)"><text x="71.389px" y="141.765px" style="font-family:'MabryPro-Black', 'Mabry Pro', sans-serif;font-weight:900;font-size:12px;">GUMTE</text><text x="117.737px" y="141.765px" style="font-family:'MabryPro-Black', 'Mabry Pro', sans-serif;font-weight:900;font-size:12px;fill:none;">C</text><g transform="matrix(12,0,0,12,155.594,141.765)"></g><text x="126.942px" y="141.765px" style="font-family:'MabryPro-Black', 'Mabry Pro', sans-serif;font-weight:900;font-size:12px;">TIVE</text></g><g><path d="M2973.71,433.295c-5.001,20.185 -12.839,39.682 -23.214,57.806c-28.479,49.748 -75.831,88.189 -131.185,106.204c-23.915,7.784 -49.088,11.719 -74.29,11.719c-25.122,-0 -50.215,-3.91 -74.061,-11.644c-69.373,-22.499 -125.407,-76.941 -148.854,-144.607c-8.214,-23.708 -12.371,-48.702 -12.371,-73.728c0,-24.556 4,-49.082 11.912,-72.391c23.019,-67.808 78.716,-122.579 147.944,-145.496c24.255,-8.03 49.826,-12.092 75.43,-12.092c24.661,-0 49.296,3.766 72.751,11.223c66.715,21.21 121.471,71.956 146.778,135.902c-33.021,14.564 -66.043,29.129 -99.064,43.693c-12.507,-36.727 -42.785,-66.334 -80.355,-78.572c-12.912,-4.206 -26.503,-6.333 -40.11,-6.333c-13.813,0 -27.607,2.192 -40.692,6.523c-37.346,12.364 -67.393,41.91 -79.81,78.49c-4.269,12.575 -6.426,25.806 -6.426,39.053c-0,13.5 2.242,26.984 6.673,39.773c12.649,36.504 42.877,65.873 80.301,78.011c12.865,4.172 26.401,6.281 39.954,6.281c13.816,-0 27.615,-2.193 40.702,-6.527c45.906,-15.202 79.799,-56.058 85.378,-103.134c34.203,13.282 68.406,26.564 102.609,39.846Z"/><path d="M2666.74,577.207c-15.158,33.735 -30.315,67.469 -45.473,101.204" style="stroke:#000;stroke-width:108.33px;"/></g></g></svg>