<?xml version="1.0" encoding="UTF-8" standalone="no"?>
<!DOCTYPE svg PUBLIC "-//W3C//DTD SVG 1.1//EN" "http://www.w3.org/Graphics/SVG/1.1/DTD/svg11.dtd">
<svg width="100%" height="100%" viewBox="0 0 1080 180" version="1.1" xmlns="http://www.w3.org/2000/svg" xmlns:xlink="http://www.w3.org/1999/xlink" xml:space="preserve" xmlns:serif="http://www.serif.com/" style="fill-rule:evenodd;clip-rule:evenodd;stroke-linecap:square;stroke-linejoin:round;stroke-miterlimit:1.5;">
    <rect id="Artboard1" x="0" y="0" width="1080" height="180" style="fill:none;"/>
    <clipPath id="_clip1">
        <rect x="0" y="0" width="1080" height="180"/>
    </clipPath>
    <g clip-path="url(#_clip1)">
        <g transform="matrix(12.9655,0,0,12.9655,-931.516,-1692.05)">
            <g transform="matrix(12,0,0,12,71.3893,141.765)">
                <path d="M0.388,0.01C0.34,0.01 0.295,0.002 0.251,-0.015C0.208,-0.033 0.171,-0.057 0.139,-0.088C0.108,-0.12 0.083,-0.158 0.064,-0.203C0.046,-0.249 0.037,-0.298 0.038,-0.35C0.037,-0.399 0.046,-0.446 0.066,-0.491C0.086,-0.536 0.112,-0.574 0.146,-0.606C0.18,-0.639 0.219,-0.664 0.265,-0.683C0.311,-0.702 0.359,-0.711 0.408,-0.71C0.5,-0.71 0.574,-0.688 0.632,-0.644C0.69,-0.601 0.729,-0.541 0.748,-0.466L0.594,-0.417C0.584,-0.463 0.563,-0.499 0.53,-0.525C0.497,-0.552 0.456,-0.565 0.408,-0.565C0.348,-0.565 0.298,-0.545 0.258,-0.504C0.218,-0.464 0.198,-0.412 0.198,-0.35C0.198,-0.284 0.216,-0.231 0.253,-0.193C0.29,-0.154 0.34,-0.135 0.403,-0.135C0.447,-0.135 0.484,-0.146 0.513,-0.169C0.543,-0.191 0.56,-0.215 0.566,-0.24L0.302,-0.24L0.302,-0.37L0.773,-0.37L0.773,-0L0.633,-0L0.633,-0.141C0.613,-0.094 0.582,-0.057 0.54,-0.03C0.498,-0.003 0.447,0.01 0.388,0.01Z" style="fill-rule:nonzero;"/>
            </g>
            <g transform="matrix(12,0,0,12,81.2858,141.765)">
                <path d="M0.058,-0.7L0.218,-0.7L0.218,-0.285C0.218,-0.239 0.229,-0.202 0.253,-0.175C0.276,-0.148 0.31,-0.135 0.353,-0.135C0.396,-0.135 0.43,-0.148 0.453,-0.175C0.476,-0.202 0.488,-0.239 0.488,-0.285L0.488,-0.7L0.648,-0.7L0.648,-0.285C0.648,-0.195 0.622,-0.123 0.569,-0.07C0.516,-0.017 0.444,0.01 0.353,0.01C0.262,0.01 0.19,-0.017 0.137,-0.07C0.084,-0.123 0.058,-0.195 0.058,-0.285L0.058,-0.7Z" style="fill-rule:nonzero;"/>
            </g>
            <g transform="matrix(12,0,0,12,89.7526,141.765)">
                <path d="M0.944,-0L0.784,-0L0.784,-0.616L0.624,-0L0.384,-0L0.224,-0.616L0.224,-0L0.064,-0L0.064,-0.7L0.354,-0.7L0.504,-0.114L0.654,-0.7L0.944,-0.7L0.944,-0Z" style="fill-rule:nonzero;"/>
            </g>
            <g transform="matrix(12,0,0,12,101.846,141.765)">
                <path d="M0.662,-0.7L0.662,-0.555L0.422,-0.555L0.422,-0L0.262,-0L0.262,-0.555L0.022,-0.555L0.022,-0.7L0.662,-0.7Z" style="fill-rule:nonzero;"/>
            </g>
            <g transform="matrix(12,0,0,12,110.049,141.765)">
                <path d="M0.064,-0.7L0.605,-0.7L0.605,-0.555L0.224,-0.555L0.224,-0.43L0.575,-0.43L0.575,-0.285L0.224,-0.285L0.224,-0.145L0.615,-0.145L0.615,-0L0.064,-0L0.064,-0.7Z" style="fill-rule:nonzero;"/>
            </g>
            <g transform="matrix(12,0,0,12,117.737,141.765)">
                <path d="M0.198,-0.35C0.198,-0.286 0.218,-0.234 0.259,-0.194C0.299,-0.155 0.348,-0.135 0.406,-0.135C0.464,-0.135 0.511,-0.152 0.547,-0.186C0.583,-0.221 0.607,-0.268 0.619,-0.328L0.766,-0.269C0.745,-0.182 0.704,-0.114 0.641,-0.064C0.578,-0.015 0.5,0.01 0.405,0.01C0.332,0.01 0.267,-0.006 0.211,-0.037C0.155,-0.068 0.113,-0.111 0.083,-0.166C0.053,-0.22 0.038,-0.282 0.038,-0.35C0.037,-0.4 0.046,-0.447 0.065,-0.492C0.084,-0.537 0.11,-0.575 0.143,-0.607C0.176,-0.639 0.215,-0.665 0.26,-0.683C0.306,-0.702 0.354,-0.711 0.405,-0.71C0.494,-0.71 0.568,-0.688 0.626,-0.645C0.684,-0.601 0.721,-0.545 0.737,-0.477L0.59,-0.411C0.58,-0.46 0.558,-0.497 0.525,-0.524C0.492,-0.551 0.451,-0.565 0.402,-0.565C0.345,-0.565 0.296,-0.545 0.257,-0.505C0.218,-0.465 0.198,-0.414 0.198,-0.35Z" style="fill:none;fill-rule:nonzero;"/>
            </g>
            <g transform="matrix(12,0,0,12,126.942,141.765)">
                <path d="M0.662,-0.7L0.662,-0.555L0.422,-0.555L0.422,-0L0.262,-0L0.262,-0.555L0.022,-0.555L0.022,-0.7L0.662,-0.7Z" style="fill-rule:nonzero;"/>
            </g>
            <g transform="matrix(12,0,0,12,135.145,141.765)">
                <rect x="0.064" y="-0.7" width="0.16" height="0.7" style="fill-rule:nonzero;"/>
            </g>
            <g transform="matrix(12,0,0,12,138.596,141.765)">
                <path d="M0.382,-0.123L0.582,-0.7L0.756,-0.7L0.498,-0L0.266,-0L0.008,-0.7L0.182,-0.7L0.382,-0.123Z" style="fill-rule:nonzero;"/>
            </g>
            <g transform="matrix(12,0,0,12,147.76,141.765)">
                <path d="M0.064,-0.7L0.605,-0.7L0.605,-0.555L0.224,-0.555L0.224,-0.43L0.575,-0.43L0.575,-0.285L0.224,-0.285L0.224,-0.145L0.615,-0.145L0.615,-0L0.064,-0L0.064,-0.7Z" style="fill-rule:nonzero;"/>
            </g>
        </g>
        <path d="M713.69,103.991C707.697,128.179 685.383,146.166 658.805,146.166C627.639,146.166 602.336,121.434 602.336,90.971C602.336,60.508 627.639,35.776 658.805,35.776C682.8,35.776 703.32,50.436 711.492,71.086L687.716,81.572C683.687,69.738 672.258,61.195 658.805,61.195C641.992,61.195 628.342,74.537 628.342,90.971C628.342,107.404 641.992,120.746 658.805,120.746C674.421,120.746 687.309,109.235 689.064,94.428L713.69,103.991Z"/>
        <path d="M640.018,138.53L629.105,162.819" style="fill:none;stroke:#000;stroke-width:26px;"/>
    </g>
</svg>
