<?xml version="1.0" encoding="UTF-8" standalone="no"?>
<!DOCTYPE svg PUBLIC "-//W3C//DTD SVG 1.1//EN" "http://www.w3.org/Graphics/SVG/1.1/DTD/svg11.dtd">
<svg width="100%" height="100%" viewBox="0 0 1080 1080" version="1.1" xmlns="http://www.w3.org/2000/svg" xmlns:xlink="http://www.w3.org/1999/xlink" xml:space="preserve" xmlns:serif="http://www.serif.com/" style="fill-rule:evenodd;clip-rule:evenodd;stroke-linecap:round;stroke-linejoin:round;stroke-miterlimit:1.5;">
    <rect id="Artboard1" x="0" y="0" width="1080" height="1080" style="fill:none;"/>
    <clipPath id="_clip1">
        <rect id="Artboard11" serif:id="Artboard1" x="0" y="0" width="1080" height="1080"/>
    </clipPath>
    <g clip-path="url(#_clip1)">
        <g transform="matrix(3.24495,0,0,3.16395,-913.557,-1142.02)">
            <ellipse cx="447.944" cy="531.621" rx="166.412" ry="170.673" style="fill:rgb(226,67,46);"/>
            <path d="M447.944,360.948C539.79,360.948 614.357,437.424 614.357,531.621C614.357,625.818 539.79,702.294 447.944,702.294C356.099,702.294 281.532,625.818 281.532,531.621C281.532,437.424 356.099,360.948 447.944,360.948ZM447.944,372.326C362.222,372.326 292.626,443.704 292.626,531.621C292.626,619.538 362.222,690.916 447.944,690.916C533.667,690.916 603.263,619.538 603.263,531.621C603.263,443.704 533.667,372.326 447.944,372.326Z"/>
        </g>
        <g transform="matrix(1.54426,0,0,1.933,-153.875,-334.644)">
            <g transform="matrix(1,0,0,1,-23.9067,-27.052)">
                <circle cx="516.359" cy="402.267" r="43.333"/>
                <path d="M516.359,358.935C540.275,358.935 559.692,378.351 559.692,402.267C559.692,426.183 540.275,445.6 516.359,445.6C492.443,445.6 473.027,426.183 473.027,402.267C473.027,378.351 492.443,358.935 516.359,358.935ZM516.359,366.695C497.139,366.695 482.74,383.047 482.74,402.267C482.74,421.488 497.139,437.84 516.359,437.84C535.58,437.84 549.979,421.488 549.979,402.267C549.979,383.047 535.58,366.695 516.359,366.695Z"/>
            </g>
            <g transform="matrix(1,0,0,1,111.319,-28.5716)">
                <circle cx="516.359" cy="402.267" r="43.333"/>
                <path d="M516.359,358.935C540.275,358.935 559.692,378.351 559.692,402.267C559.692,426.183 540.275,445.6 516.359,445.6C492.443,445.6 473.027,426.183 473.027,402.267C473.027,378.351 492.443,358.935 516.359,358.935ZM516.359,366.695C497.139,366.695 482.74,383.047 482.74,402.267C482.74,421.488 497.139,437.84 516.359,437.84C535.58,437.84 549.979,421.488 549.979,402.267C549.979,383.047 535.58,366.695 516.359,366.695Z"/>
            </g>
            <g transform="matrix(1,0,0,1,-3.75629,1.56895)">
                <path d="M457.6,471.522C497.019,492.761 529.483,477.2 549.322,461.1C562.84,450.13 570.496,438.909 570.496,438.909" style="fill:none;stroke:black;stroke-width:21.15px;"/>
            </g>
            <g transform="matrix(1,0,0,1,6.47558,20.6932)">
                <path d="M560.264,419.784C560.264,419.784 594.351,491.925 677.044,447.451" style="fill:none;stroke:black;stroke-width:21.15px;"/>
            </g>
        </g>
    </g>
</svg>
