<?xml version="1.0" encoding="UTF-8" standalone="no"?><!DOCTYPE svg PUBLIC "-//W3C//DTD SVG 1.1//EN" "http://www.w3.org/Graphics/SVG/1.1/DTD/svg11.dtd"><svg width="100%" height="100%" viewBox="0 0 1080 1080" version="1.1" xmlns="http://www.w3.org/2000/svg" xmlns:xlink="http://www.w3.org/1999/xlink" xml:space="preserve" xmlns:serif="http://www.serif.com/" style="fill-rule:evenodd;clip-rule:evenodd;stroke-linecap:round;stroke-linejoin:round;stroke-miterlimit:1.5;"><rect id="Artboard1" x="0" y="0" width="1080" height="1080" style="fill:none;"/><clipPath id="_clip1"><rect x="0" y="0" width="1080" height="1080"/></clipPath><g clip-path="url(#_clip1)"><circle cx="540" cy="540" r="540" style="fill:#22a094;"/><path d="M540,0c298.034,0 540,241.966 540,540c0,298.034 -241.966,540 -540,540c-298.034,0 -540,-241.966 -540,-540c0,-298.034 241.966,-540 540,-540Zm0,36c-278.165,0 -504,225.835 -504,504c0,278.165 225.835,504 504,504c278.165,0 504,-225.835 504,-504c0,-278.165 -225.835,-504 -504,-504Z"/><g><ellipse cx="606.601" cy="390.648" rx="66.917" ry="83.762"/><path d="M606.601,306.886c36.933,-0 66.917,37.532 66.917,83.762c0,46.23 -29.984,83.762 -66.917,83.762c-36.932,0 -66.917,-37.532 -66.917,-83.762c0,-46.23 29.985,-83.762 66.917,-83.762Zm0,15c-29.681,-0 -51.917,31.609 -51.917,68.762c0,37.153 22.236,68.762 51.917,68.762c29.681,0 51.917,-31.609 51.917,-68.762c0,-37.153 -22.236,-68.762 -51.917,-68.762Z"/><ellipse cx="815.425" cy="387.711" rx="66.917" ry="83.762"/><path d="M815.425,303.948c36.932,0 66.917,37.533 66.917,83.763c-0,46.229 -29.985,83.762 -66.917,83.762c-36.933,-0 -66.917,-37.533 -66.917,-83.762c-0,-46.23 29.984,-83.763 66.917,-83.763Zm-0,15c-29.682,0 -51.917,31.61 -51.917,68.763c-0,37.152 22.235,68.762 51.917,68.762c29.681,-0 51.917,-31.61 51.917,-68.762c-0,-37.153 -22.236,-68.763 -51.917,-68.763Z"/><path d="M546.978,579.842c60.874,41.055 111.008,10.976 141.644,-20.145c20.875,-21.206 32.698,-42.897 32.698,-42.897" style="fill:none;stroke:#000;stroke-width:37px;"/><path d="M721.32,516.8c0,0 52.639,139.449 180.339,53.48" style="fill:none;stroke:#000;stroke-width:37px;"/></g></g></svg>